<?xml version="1.0" encoding="UTF-8" standalone="no"?>
<!-- Created with Inkscape (http://www.inkscape.org/) -->

<svg
   width="24.72567mm"
   height="11.945395mm"
   viewBox="0 0 24.72567 11.945395"
   version="1.1"
   id="svg1"
   sodipodi:docname="bpm.svg"
   inkscape:version="1.3.2 (091e20e, 2023-11-25, custom)"
   xmlns:inkscape="http://www.inkscape.org/namespaces/inkscape"
   xmlns:sodipodi="http://sodipodi.sourceforge.net/DTD/sodipodi-0.dtd"
   xmlns="http://www.w3.org/2000/svg"
   xmlns:svg="http://www.w3.org/2000/svg">
  <sodipodi:namedview
     id="namedview1"
     pagecolor="#ffffff"
     bordercolor="#000000"
     borderopacity="0.25"
     inkscape:showpageshadow="2"
     inkscape:pageopacity="0.0"
     inkscape:pagecheckerboard="0"
     inkscape:deskcolor="#d1d1d1"
     inkscape:document-units="mm"
     inkscape:zoom="13.140527"
     inkscape:cx="46.725675"
     inkscape:cy="22.563783"
     inkscape:window-width="1920"
     inkscape:window-height="1009"
     inkscape:window-x="-8"
     inkscape:window-y="-8"
     inkscape:window-maximized="1"
     inkscape:current-layer="svg1" />
  <defs
     id="defs1" />
  <g
     id="layer1"
     transform="translate(-170.36591,-60.400641)"
     style="fill:#e1f0da;fill-opacity:1">
    <g
       id="text15-6-6-0"
       transform="matrix(0.27731499,0,0,0.30843932,18.373532,28.69344)"
       style="fill:#e1f0da;fill-opacity:1">
      <path
         style="color:#000000;-inkscape-font-specification:'Alumni Sans Inline One Italic';fill:#e1f0da;stroke-linecap:round;stroke-linejoin:round;-inkscape-stroke:none;fill-opacity:1"
         d="m 548.53773,141.07576 5.312,-37.824 h 14.848 q 3.776,0 5.44,1.408 1.664,1.408 1.664,3.84 0,0.256 0,0.576 0,0.32 -0.064,0.64 l -0.576,4.096 q -0.32,2.688 -1.92,4.672 -1.6,1.92 -4.672,2.24 v 0.128 q 2.432,0 4.032,1.408 1.664,1.344 1.664,4.352 0,0.32 -0.064,0.704 0,0.384 -0.064,0.832 l -0.704,4.928 q -0.64,4.544 -3.392,6.272 -2.752,1.728 -7.232,1.728 z m 13.824,-2.88 q 2.048,0 3.776,-2.048 1.792,-2.048 2.432,-6.464 v 0.128 q 0,0 0.064,-0.576 0.064,-0.64 0.128,-1.216 0.064,-0.384 0.064,-0.768 0.064,-0.448 0.064,-0.832 0,-1.92 -0.896,-3.328 -0.896,-1.472 -2.944,-1.472 1.408,0 2.944,-2.048 1.472,-2.048 2.112,-6.528 0.128,-1.088 0.192,-1.92 0.128,-0.896 0.128,-1.6 0,-2.112 -0.96,-2.816 -0.96,-0.768 -3.456,-0.768 l -2.048,0.064 -0.064,0.128 2.048,0.064 q 2.368,0 3.2,0.768 0.832,0.704 0.832,2.432 0,0.704 -0.128,1.664 -0.128,0.896 -0.256,1.984 -0.512,3.648 -1.728,6.144 -1.216,2.432 -3.456,2.432 h -2.56 v 0.128 h 2.56 q 2.304,0 3.136,1.088 0.832,1.088 0.832,2.944 0,0.96 -0.192,2.24 l -0.192,1.664 q -0.64,4.288 -2.176,6.272 -1.536,1.984 -3.456,1.984 l -2.816,0.064 v 0.128 z m -8.128,0 h 0.192 l 2.432,-16.64 2.112,-15.488 h -0.256 l -2.496,15.488 z m 8,-19.392 h 0.768 q 0.704,0 1.28,-1.472 0.256,-0.704 0.448,-1.6 0.256,-0.96 0.384,-1.984 0.128,-1.088 0.192,-1.984 0.064,-0.96 0.128,-1.664 v -0.256 q 0,-1.216 -0.768,-1.216 h -0.96 z m -2.368,17.088 h 0.96 q 0.704,0 1.152,-1.6 0.448,-1.536 0.768,-3.776 0.128,-0.896 0.256,-1.856 0.128,-1.024 0.128,-1.856 0,-0.704 -0.192,-1.152 -0.128,-0.512 -0.64,-0.512 h -0.96 z m 14.78406,5.184 5.312,-37.824 h 14.848 q 3.776,0 5.44,1.408 1.664,1.408 1.664,3.84 0,0.256 0,0.576 0,0.32 -0.064,0.64 l -0.832,6.272 q -0.448,2.944 -1.472,5.376 -0.96,2.432 -2.816,3.904 -1.792,1.472 -4.736,1.472 h -4.736 l -1.984,14.336 z m 13.184,-17.024 h 2.56 q 1.92,0 3.136,-1.408 1.216,-1.472 1.856,-3.776 0.704,-2.304 1.088,-4.864 0.192,-1.088 0.32,-2.048 0.128,-1.024 0.128,-1.856 0,-1.856 -0.96,-2.944 -0.896,-1.152 -3.648,-1.216 l -2.048,0.064 -0.064,0.128 2.048,0.064 q 2.368,0 3.136,0.896 0.832,0.832 0.832,2.496 0,0.896 -0.192,2.112 -0.128,1.152 -0.32,2.624 -0.256,2.112 -0.832,4.352 -0.512,2.176 -1.6,3.712 -1.024,1.472 -2.88,1.472 l -2.56,0.064 z m -7.616,14.016 h 0.256 l 2.624,-16.192 1.92,-15.808 h -0.256 l -2.496,15.808 z m 7.808,-16.832 h 0.768 q 0.768,0 1.216,-1.408 0.256,-0.704 0.512,-1.856 0.256,-1.216 0.512,-3.008 0.512,-3.584 0.576,-4.928 v -0.256 q 0,-1.152 -0.832,-1.152 h -0.96 z m 12.09605,19.84 5.312,-37.824 h 12.928 v 19.328 l 5.504,-19.328 h 12.928 l -5.312,37.824 h -8.896 l 3.648,-26.368 -7.04,26.368 h -6.784 l 0.256,-26.368 -3.648,26.368 z m 4.736,-3.008 h 0.256 l 2.624,-16.192 1.92,-15.808 h -0.256 l -2.496,15.808 z m 22.464,0 h 0.256 l 2.624,-16.192 1.92,-15.808 h -0.256 l -2.496,15.808 z m -11.136,0 1.536,-4.608 q 0.704,-2.048 1.6,-4.672 0.896,-2.624 1.792,-5.504 0.896,-2.944 1.792,-5.824 0.96,-2.944 1.728,-5.312 l 1.728,-5.248 h -0.128 l -5.76,16.32 -4.16,13.952 q 0,-1.088 0,-2.176 0,-1.088 -0.064,-2.24 l -0.064,-4.48 q -0.064,-2.432 -0.192,-4.992 l -0.256,-5.824 q -0.064,-1.472 -0.192,-2.752 -0.064,-1.28 -0.128,-2.496 l -0.384,-5.376 h -0.128 l 0.128,5.312 q 0.064,1.216 0.064,2.56 0,1.28 0.064,2.752 0,1.472 0,2.944 0.064,1.472 0.128,2.944 0.064,2.752 0.192,5.376 0.192,2.56 0.384,4.608 0.128,1.6 0.192,3.008 0.128,1.408 0.128,1.728 z"
         id="path3" />
      <path
         style="color:#000000;-inkscape-font-specification:'Alumni Sans Inline One Italic';fill:#e1f0da;stroke-linecap:round;stroke-linejoin:round;-inkscape-stroke:none;fill-opacity:1"
         d="m 553.84961,102.79883 a 0.45238125,0.45238125 0 0 0 -0.44727,0.39062 l -5.3125,37.82422 a 0.45238125,0.45238125 0 0 0 0.44727,0.51367 h 14.27344 c 3.04482,0 5.54437,-0.58609 7.47265,-1.79687 1.97207,-1.23828 3.15937,-3.48077 3.59766,-6.58985 v -0.002 l 0.70508,-4.92773 c 0.0415,-0.29031 0.059,-0.5599 0.0625,-0.82031 l 0.002,-0.0137 c 2.1e-4,-0.0192 0.004,-0.0415 0.004,-0.0605 0.0378,-0.24687 0.0644,-0.48476 0.0644,-0.70508 0,-2.08566 -0.5942,-3.69728 -1.82813,-4.69727 -0.70445,-0.6175 -1.56091,-0.9812 -2.48437,-1.2207 1.26697,-0.40087 2.39419,-0.97264 3.18359,-1.91992 a 0.45238125,0.45238125 0 0 0 0.004,-0.006 c 1.11803,-1.38636 1.79213,-3.0299 2.01562,-4.89258 v -0.004 l 0.57227,-4.0664 c 0.0484,-0.24177 0.0723,-0.48503 0.0723,-0.72852 V 108.5 c 0,-1.7245 -0.61685,-3.16393 -1.82422,-4.18555 -1.23813,-1.04764 -3.15887,-1.51562 -5.73242,-1.51562 z m 26.11133,0 a 0.45238125,0.45238125 0 0 0 -0.44727,0.39062 l -5.3125,37.82422 a 0.45238125,0.45238125 0 0 0 0.44922,0.51367 h 10.62305 a 0.45238125,0.45238125 0 0 0 0.44922,-0.38867 l 1.92968,-13.94726 h 4.3418 c 2.03805,0 3.73489,-0.51577 5.02344,-1.57422 1.29678,-1.03045 2.28135,-2.40061 2.94531,-4.07813 l 0.002,-0.006 c 0.69766,-1.65831 1.19674,-3.4837 1.5,-5.47656 a 0.45238125,0.45238125 0 0 0 0.002,-0.01 l 0.83203,-6.27149 -0.006,0.0293 c 0.0484,-0.24177 0.0723,-0.48503 0.0723,-0.72852 V 108.5 c 0,-1.7245 -0.61685,-3.16393 -1.82421,-4.18555 -1.23813,-1.04764 -3.15692,-1.51562 -5.73047,-1.51562 z m 25.47265,0 a 0.45238125,0.45238125 0 0 0 -0.44726,0.39062 l -5.3125,37.82422 a 0.45238125,0.45238125 0 0 0 0.44726,0.51367 h 8.89649 a 0.45238125,0.45238125 0 0 0 0.44922,-0.38867 l 2.67773,-19.36133 -0.1875,19.29493 a 0.45238125,0.45238125 0 0 0 0.45313,0.45507 h 6.7832 a 0.45238125,0.45238125 0 0 0 0.4375,-0.33398 l 5.15234,-19.30078 -2.64453,19.12109 a 0.45238125,0.45238125 0 0 0 0.44727,0.51367 h 8.89648 a 0.45238125,0.45238125 0 0 0 0.44727,-0.38867 l 5.3125,-37.82422 a 0.45238125,0.45238125 0 0 0 -0.44922,-0.51562 h -12.92774 a 0.45238125,0.45238125 0 0 0 -0.43359,0.32812 l -4.61719,16.21485 v -16.08985 a 0.45238125,0.45238125 0 0 0 -0.45312,-0.45312 z m -51.1914,0.9043 h 14.45508 c 2.4611,-1e-5 4.1679,0.47304 5.14843,1.30273 1.0113,0.85571 1.50391,1.97597 1.50391,3.49414 v 0.57617 c 0,0.18318 -0.0177,0.36588 -0.0547,0.55078 a 0.45238125,0.45238125 0 0 0 -0.006,0.0254 l -0.57617,4.09571 a 0.45238125,0.45238125 0 0 0 0,0.01 c -0.2043,1.71613 -0.81004,3.18349 -1.82227,4.43946 -5.6e-4,7e-4 -0.001,0.001 -0.002,0.002 -0.98325,1.17628 -2.40542,1.87007 -4.36523,2.07422 a 0.45238125,0.45238125 0 0 0 -0.40625,0.45117 v 0.12695 a 0.45238125,0.45238125 0 0 0 0.45312,0.45313 c 1.53404,0 2.75109,0.43134 3.73242,1.29492 a 0.45238125,0.45238125 0 0 0 0.0156,0.0117 c 0.98101,0.79235 1.49414,2.07808 1.49414,4 0,0.18318 -0.0173,0.39496 -0.0566,0.63086 a 0.45238125,0.45238125 0 0 0 -0.006,0.0742 c 0,0.23087 -0.0204,0.48682 -0.0606,0.76757 l -0.70312,4.92774 c -0.41528,2.94851 -1.48873,4.88768 -3.18555,5.95312 -1.74105,1.09322 -4.06173,1.65821 -6.99023,1.65821 h -13.75196 z m 26.11328,0 h 14.45508 c 2.46111,-1e-5 4.16594,0.47304 5.14648,1.30273 1.0113,0.85571 1.50391,1.97597 1.50391,3.49414 v 0.57617 c 0,0.18318 -0.0177,0.36588 -0.0547,0.55078 a 0.45238125,0.45238125 0 0 0 -0.004,0.0293 l -0.83203,6.26367 c -0.29374,1.93031 -0.77491,3.68467 -1.4414,5.26758 a 0.45238125,0.45238125 0 0 0 -0.004,0.01 c -0.61489,1.55772 -1.50372,2.78723 -2.67578,3.71679 a 0.45238125,0.45238125 0 0 0 -0.006,0.004 c -1.10078,0.90421 -2.56194,1.36914 -4.44922,1.36914 h -4.73633 a 0.45238125,0.45238125 0 0 0 -0.44726,0.39062 l -1.93164,13.94532 h -9.70899 z m 25.4707,0 h 12.08399 v 18.87695 a 0.45238125,0.45238125 0 0 0 0.88671,0.12305 l 5.41016,-19 h 12.06641 l -5.18555,36.91992 h -7.98242 l 3.57617,-25.85352 a 0.45238125,0.45238125 0 0 0 -0.88477,-0.17773 l -6.95117,26.03125 h -5.98047 l 0.25196,-25.91016 a 0.45238125,0.45238125 0 0 0 -0.90039,-0.0664 l -3.59375,25.97657 h -7.98047 z m -39.83008,1.78515 -2.04882,0.0625 a 0.45238125,0.45238125 0 0 0 -0.39063,0.25 l -0.0644,0.12891 a 0.45238125,0.45238125 0 0 0 0.39062,0.65429 l 2.04883,0.0645 a 0.45238125,0.45238125 0 0 0 0.0137,0 c 1.52977,0 2.49703,0.28151 2.89453,0.64844 a 0.45238125,0.45238125 0 0 0 0.0137,0.0117 c 0.41535,0.35146 0.67187,1.00849 0.67187,2.08789 0,0.44192 -0.0416,0.97788 -0.125,1.60352 l 0.002,-0.004 c -0.086,0.60181 -0.17211,1.26575 -0.25781,1.99414 -0.33665,2.39219 -0.90318,4.39409 -1.68555,6 -0.76061,1.51869 -1.72054,2.17774 -3.04882,2.17774 h -2.56055 a 0.45238125,0.45238125 0 0 0 -0.45313,0.45117 v 0.12891 a 0.45238125,0.45238125 0 0 0 0.45313,0.45117 h 2.56055 c 1.46479,0 2.34311,0.34682 2.77539,0.91211 0.47927,0.62674 0.74023,1.49823 0.74023,2.66797 0,0.60984 -0.062,1.3369 -0.1875,2.17383 a 0.45238125,0.45238125 0 0 0 -0.002,0.0156 l -0.18946,1.65039 c -0.42041,2.81536 -1.14012,4.83888 -2.08593,6.06055 -0.96815,1.25052 -1.97542,1.80859 -3.09961,1.80859 a 0.45238125,0.45238125 0 0 0 -0.01,0 l -2.8164,0.0625 a 0.45238125,0.45238125 0 0 0 -0.44141,0.45313 v 0.12695 a 0.45238125,0.45238125 0 0 0 0.44141,0.45312 l 2.8164,0.0645 a 0.45238125,0.45238125 0 0 0 0.01,0 c 1.51365,0 2.90974,-0.77493 4.11719,-2.20313 l 0.002,-0.002 c 1.25863,-1.4395 2.06222,-3.64108 2.50195,-6.55078 a 0.45238125,0.45238125 0 0 0 0.0371,-0.0312 l 0.0644,-0.57617 a 0.45238125,0.45238125 0 0 0 0,-0.004 c 0.0425,-0.42518 0.0845,-0.82877 0.12696,-1.21094 l -0.004,0.0234 c 0.0467,-0.28012 0.0703,-0.56067 0.0703,-0.8418 0.039,-0.29141 0.0645,-0.57109 0.0645,-0.83203 0,-1.34874 -0.31908,-2.54995 -0.96485,-3.5664 -0.39959,-0.6541 -1.01315,-1.06172 -1.71875,-1.33594 0.57592,-0.38028 1.14018,-0.93104 1.69727,-1.67383 a 0.45238125,0.45238125 0 0 0 0.006,-0.008 c 1.05443,-1.46703 1.75924,-3.70334 2.1914,-6.72852 a 0.45238125,0.45238125 0 0 0 0.002,-0.0117 c 0.0846,-0.71893 0.14814,-1.35159 0.1914,-1.9082 l 0.002,-0.0293 c 0.0847,-0.60087 0.13086,-1.14675 0.13086,-1.63476 0,-1.47238 -0.33363,-2.5738 -1.14258,-3.17188 -0.78972,-0.62622 -2.02249,-0.86328 -3.72656,-0.86328 a 0.45238125,0.45238125 0 0 0 -0.0137,0 z m 26.30274,0 -2.04688,0.0625 a 0.45238125,0.45238125 0 0 0 -0.39062,0.25 l -0.0645,0.12891 a 0.45238125,0.45238125 0 0 0 0.39063,0.65429 l 2.04883,0.0645 a 0.45238125,0.45238125 0 0 0 0.0137,0 c 1.52161,0 2.43047,0.31536 2.79297,0.73828 a 0.45238125,0.45238125 0 0 0 0.0234,0.0254 c 0.44805,0.44805 0.69921,1.14184 0.69921,2.17578 0,0.56502 -0.0622,1.24726 -0.1875,2.04102 a 0.45238125,0.45238125 0 0 0 -0.002,0.0215 c -0.0849,0.76434 -0.19065,1.63613 -0.31836,2.61524 a 0.45238125,0.45238125 0 0 0 -0.002,0.004 c -0.16809,1.38673 -0.44083,2.81719 -0.82031,4.29297 a 0.45238125,0.45238125 0 0 0 -0.002,0.01 c -0.3304,1.40422 -0.84285,2.58559 -1.52929,3.55468 a 0.45238125,0.45238125 0 0 0 -0.002,0.002 c -0.6095,0.87616 -1.39006,1.27929 -2.50781,1.27929 a 0.45238125,0.45238125 0 0 0 -0.0117,0 l -2.56054,0.0625 a 0.45238125,0.45238125 0 0 0 -0.44141,0.45313 v 0.1289 a 0.45238125,0.45238125 0 0 0 0.45312,0.45118 h 2.56055 c 1.39057,0 2.59088,-0.53666 3.47852,-1.56446 a 0.45238125,0.45238125 0 0 0 0.006,-0.008 c 0.85879,-1.0396 1.50164,-2.3583 1.9414,-3.93945 0.47408,-1.55292 0.84106,-3.19028 1.09961,-4.91016 l 0.002,-0.01 c 0.12816,-0.72694 0.23444,-1.41255 0.32032,-2.05664 a 0.45238125,0.45238125 0 0 0 0,-0.004 c 0.0872,-0.69763 0.13281,-1.33425 0.13281,-1.91211 0,-1.30797 -0.34825,-2.40696 -1.06445,-3.22656 -0.73401,-0.93671 -2.09468,-1.34078 -3.98633,-1.38477 a 0.45238125,0.45238125 0 0 0 -0.0254,0 z m -33.58594,0.12695 a 0.45238125,0.45238125 0 0 0 -0.44531,0.38086 l -2.4961,15.48829 a 0.45238125,0.45238125 0 0 0 -0.002,0.0176 l -1.98437,16.64063 a 0.45238125,0.45238125 0 0 0 0.44921,0.50586 h 0.19141 a 0.45238125,0.45238125 0 0 0 0.44727,-0.38672 l 2.43164,-16.64063 a 0.45238125,0.45238125 0 0 0 0.002,-0.004 l 2.11133,-15.48828 a 0.45238125,0.45238125 0 0 0 -0.44727,-0.51368 z m 26.04883,0 a 0.45238125,0.45238125 0 0 0 -0.44727,0.38282 l -2.49609,15.80664 a 0.45238125,0.45238125 0 0 0 -0.002,0.0137 l -2.04688,16.19336 a 0.45238125,0.45238125 0 0 0 0.44922,0.50781 h 0.25586 a 0.45238125,0.45238125 0 0 0 0.44531,-0.37891 l 2.625,-16.19335 a 0.45238125,0.45238125 0 0 0 0.002,-0.0176 l 1.91993,-15.80664 a 0.45238125,0.45238125 0 0 0 -0.44922,-0.50782 z m 24.64062,0 a 0.45238125,0.45238125 0 0 0 -0.44726,0.38282 l -2.4961,15.80664 a 0.45238125,0.45238125 0 0 0 -0.002,0.0137 l -2.04883,16.19336 a 0.45238125,0.45238125 0 0 0 0.44922,0.50781 h 0.25586 a 0.45238125,0.45238125 0 0 0 0.44727,-0.37891 l 2.62304,-16.19335 a 0.45238125,0.45238125 0 0 0 0.004,-0.0176 l 1.91992,-15.80664 a 0.45238125,0.45238125 0 0 0 -0.44922,-0.50782 z m 22.46289,0 a 0.45238125,0.45238125 0 0 0 -0.44531,0.38282 l -2.49609,15.80664 a 0.45238125,0.45238125 0 0 0 -0.002,0.0137 l -2.04882,16.19336 a 0.45238125,0.45238125 0 0 0 0.44922,0.50781 h 0.25585 a 0.45238125,0.45238125 0 0 0 0.44532,-0.37891 l 2.625,-16.19335 a 0.45238125,0.45238125 0 0 0 0.002,-0.0176 l 1.91992,-15.80664 a 0.45238125,0.45238125 0 0 0 -0.44922,-0.50782 z m -16.95898,0.76758 a 0.45238125,0.45238125 0 0 0 -0.45313,0.46289 l 0.12891,5.3125 a 0.45238125,0.45238125 0 0 0 0,0.0137 c 0.0422,0.80193 0.0625,1.64633 0.0625,2.53515 0,0.86087 0.0215,1.78447 0.0644,2.77149 v 2.92578 a 0.45238125,0.45238125 0 0 0 0,0.0195 l 0.12891,2.94336 c 0.0427,1.83485 0.10603,3.62872 0.19141,5.3789 a 0.45238125,0.45238125 0 0 0 0.002,0.0117 c 0.12817,1.70891 0.25644,3.24642 0.38477,4.61524 l -0.002,-0.006 c 0.085,1.06212 0.14901,2.05942 0.19141,2.99218 a 0.45238125,0.45238125 0 0 0 0.002,0.0215 c 0.0851,0.93559 0.12695,1.53448 0.12695,1.6875 a 0.45238125,0.45238125 0 0 0 0.88086,0.14258 l 1.53516,-4.60352 c 0.46946,-1.3657 1.0022,-2.92427 1.59961,-4.67383 0.59879,-1.75358 1.19646,-3.59199 1.79492,-5.51562 a 0.45238125,0.45238125 0 0 0 0.002,-0.002 c 0.59647,-1.95981 1.19262,-3.89922 1.78907,-5.81641 l 0.002,-0.006 c 0.639,-1.9596 1.21517,-3.72788 1.72656,-5.30469 v -0.002 l 1.72657,-5.24609 a 0.45238125,0.45238125 0 0 0 -0.42969,-0.59375 h -0.12696 a 0.45238125,0.45238125 0 0 0 -0.42773,0.30273 l -5.75977,16.31836 a 0.45238125,0.45238125 0 0 0 -0.006,0.0215 l -3.29883,11.06641 c -0.01,-0.4653 -0.0145,-0.92489 -0.041,-1.40625 v -0.0195 l -0.0625,-4.46094 a 0.45238125,0.45238125 0 0 0 0,-0.006 c -0.0428,-1.62445 -0.10791,-3.29065 -0.19336,-5 v -0.002 l -0.25586,-5.82227 c -0.0426,-0.98037 -0.1062,-1.89716 -0.1914,-2.7539 l -0.002,-0.0234 c -0.0423,-0.84529 -0.0847,-1.67115 -0.12695,-2.47461 a 0.45238125,0.45238125 0 0 0 0,-0.008 l -0.38477,-5.37696 a 0.45238125,0.45238125 0 0 0 -0.45117,-0.41992 z m -45.46875,0.23633 0.0156,0.0117 c -0.003,-0.003 -0.009,-0.003 -0.0117,-0.006 -0.002,-0.002 -0.002,-0.004 -0.004,-0.006 z m 26.26758,0.15234 0.0234,0.0254 c -0.003,-0.003 -0.009,-0.004 -0.0117,-0.008 -0.005,-0.005 -0.007,-0.0127 -0.0117,-0.0176 z m -32,1.4043 a 0.45238125,0.45238125 0 0 0 -0.44727,0.38672 l -1.47265,10.17578 a 0.45238125,0.45238125 0 0 0 0.44921,0.51758 h 0.76758 c 0.3923,0 0.74645,-0.21613 1.01367,-0.52344 0.26723,-0.3073 0.48411,-0.71654 0.6875,-1.23633 a 0.45238125,0.45238125 0 0 0 0.004,-0.01 c 0.177,-0.48675 0.32856,-1.03429 0.45899,-1.63867 v -0.002 c 0.1759,-0.65998 0.30878,-1.33943 0.39648,-2.04101 a 0.45238125,0.45238125 0 0 0 0,-0.004 c 0.086,-0.73095 0.15205,-1.39817 0.19531,-2.0039 a 0.45238125,0.45238125 0 0 0 0,-0.004 c 0.0425,-0.63734 0.0847,-1.18794 0.12696,-1.65234 a 0.45238125,0.45238125 0 0 0 0.002,-0.041 v -0.25586 c 0,-0.45295 -0.061,-0.83652 -0.26172,-1.1543 -0.2007,-0.31778 -0.58362,-0.51367 -0.95898,-0.51367 z m 26.11328,0 a 0.45238125,0.45238125 0 0 0 -0.44922,0.38867 l -1.79102,12.60743 a 0.45238125,0.45238125 0 0 0 0.44727,0.51562 h 0.76758 c 0.39421,0 0.767,-0.20184 1.03125,-0.50781 0.2634,-0.30499 0.45489,-0.70829 0.61523,-1.21094 0.1798,-0.49665 0.35132,-1.12391 0.52344,-1.89844 a 0.45238125,0.45238125 0 0 0 0.002,-0.006 c 0.17364,-0.82475 0.34596,-1.83572 0.51758,-3.03711 0.34208,-2.39455 0.5356,-4.03654 0.58008,-4.9707 a 0.45238125,0.45238125 0 0 0 0,-0.0215 v -0.25586 c 0,-0.43845 -0.0725,-0.82087 -0.29492,-1.12891 -0.22247,-0.30803 -0.60852,-0.47461 -0.99024,-0.47461 z m -25.7207,0.9043 h 0.56836 c 0.13663,0 0.13806,0.006 0.19335,0.0937 0.0553,0.0876 0.1211,0.3122 0.1211,0.66992 v 0.24023 c -0.0425,0.46957 -0.0848,1.01747 -0.12695,1.6504 l 0.002,-0.002 c -0.0421,0.58894 -0.10674,1.24318 -0.19141,1.96289 -0.0829,0.66172 -0.20623,1.30169 -0.37109,1.91992 a 0.45238125,0.45238125 0 0 0 -0.006,0.0215 c -0.12368,0.57718 -0.26694,1.08763 -0.42774,1.53125 -0.1802,0.4598 -0.36828,0.78778 -0.52734,0.9707 -0.15944,0.18336 -0.25304,0.21289 -0.33008,0.21289 h -0.24609 z m 26.11328,0 h 0.5664 c 0.17295,0 0.20295,0.0236 0.25782,0.0996 0.0549,0.076 0.12304,0.27006 0.12304,0.59961 v 0.23437 c -0.0408,0.85784 -0.23168,2.50261 -0.57226,4.88672 -0.16938,1.18568 -0.33848,2.17685 -0.50586,2.97266 -0.16797,0.75587 -0.33596,1.36041 -0.4961,1.80078 a 0.45238125,0.45238125 0 0 0 -0.006,0.0176 c -0.13801,0.43375 -0.29836,0.73312 -0.43945,0.89648 -0.14108,0.16336 -0.22792,0.19531 -0.3457,0.19531 h -0.2461 z m -28.87305,15.60742 a 0.45238125,0.45238125 0 0 0 -0.44922,0.39063 l -1.4707,10.75195 a 0.45238125,0.45238125 0 0 0 0.44726,0.51367 h 0.96094 c 0.40601,0 0.7628,-0.25031 1.00586,-0.58789 0.24234,-0.33658 0.42279,-0.77734 0.58008,-1.33789 l 0.002,-0.004 c 0.30668,-1.0523 0.56407,-2.32735 0.7793,-3.83398 0.0856,-0.59883 0.17035,-1.22003 0.25586,-1.86133 a 0.45238125,0.45238125 0 0 0 0.002,-0.002 c 0.0872,-0.69763 0.13086,-1.33425 0.13086,-1.91211 0,-0.49324 -0.0705,-0.91811 -0.2207,-1.28711 -0.0623,-0.22889 -0.17473,-0.45111 -0.36524,-0.60352 -0.19856,-0.15885 -0.45316,-0.22656 -0.69922,-0.22656 z m 0.39453,0.9043 h 0.56445 c 0.0953,0 0.12,0.0175 0.13477,0.0293 0.0148,0.0118 0.0409,0.0388 0.0664,0.14063 a 0.45238125,0.45238125 0 0 0 0.0234,0.0684 c 0.0942,0.21981 0.15625,0.5464 0.15625,0.97461 0,0.53147 -0.0415,1.13112 -0.125,1.79883 -0.085,0.63728 -0.16896,1.25305 -0.2539,1.84765 -0.2112,1.47841 -0.46564,2.7198 -0.75586,3.71485 a 0.45238125,0.45238125 0 0 0 0,0.004 c -0.14104,0.50371 -0.30242,0.86089 -0.44336,1.05664 -0.14094,0.19575 -0.21011,0.21289 -0.27344,0.21289 h -0.4414 z"
         id="path5" />
    </g>
  </g>
</svg>
