<svg xmlns="http://www.w3.org/2000/svg" width="13.531" height="13.531" fill="none" xmlns:v="https://vecta.io/nano"><path d="M6.766 0c.888 0 1.768.175 2.589.515s1.567.838 2.195 1.467 1.127 1.374 1.467 2.195.515 1.701.515 2.589-.175 1.768-.515 2.589-.838 1.567-1.467 2.195-1.374 1.127-2.195 1.467-1.701.515-2.589.515V6.766z" fill="#41473c"/><path d="M6.766 0c-.888 0-1.768.175-2.589.515s-1.567.838-2.195 1.467S.855 3.356.515 4.177 0 5.877 0 6.766.175 8.534.515 9.355s.838 1.567 1.467 2.195 1.374 1.127 2.195 1.467 1.701.515 2.589.515V6.766z" fill="#899d7e" fill-opacity=".01"/></svg>