<svg xmlns="http://www.w3.org/2000/svg" width="80.251" height="120.336" viewBox="0 0 21.233 31.839" xmlns:v="https://vecta.io/nano"><defs><mask id="A" maskUnits="userSpaceOnUse"><g fill="#fff"><path d="M41.642 150.31h17.439v20.238H41.642z"/><path d="M41.642 150.31h17.439v20.238H41.642z"/></g><g transform="matrix(.1758 0 0 .30844 -50.58 122.51)" stroke-linecap="round" stroke-linejoin="round"><path d="M555.71 141.08l4.672-10.368h-9.6l2.816-6.08h9.6l2.816-6.208-9.792-.064 2.816-6.08h9.792l3.584-7.936h6.4l-3.648 7.936h6.848l3.648-7.936h6.4l-3.648 7.936h9.152l-2.816 6.144h-9.152l-2.752 6.208h9.28l-2.816 6.144h-9.28l-4.672 10.304h-6.4l4.672-10.304-6.848-.064-4.672 10.368zm3.776-1.472h.256l8.576-18.432 6.592-15.104h-.256l-7.04 15.104zm13.12 0h.256l8.576-18.432 6.592-15.104h-.256l-7.04 15.104zm-3.008-14.976h6.848l2.752-6.208h-6.848z"/><path d="M572.41 103.77a.57.57 0 0 0-.518.334l-3.434 7.602h-9.426a.57.57 0 0 0-.516.33l-2.814 6.08a.57.57 0 0 0 .512.807l8.916.059-2.303 5.078h-9.234a.57.57 0 0 0-.516.328l-2.816 6.08a.57.57 0 0 0 .516.807h8.721l-4.311 9.566a.57.57 0 0 0 .518.803h6.4a.57.57 0 0 0 .518-.336l4.519-10.029 5.606.053-4.312 9.51a.57.57 0 0 0 .518.803h6.4a.57.57 0 0 0 .518-.334l4.521-9.971h8.914a.57.57 0 0 0 .516-.332l2.816-6.143a.57.57 0 0 0-.518-.805h-8.406l2.248-5.072h8.783a.57.57 0 0 0 .516-.332l2.816-6.144a.57.57 0 0 0-.516-.805h-8.266l3.277-7.131a.57.57 0 0 0-.516-.805h-6.4a.57.57 0 0 0-.518.33l-3.494 7.606h-5.598l3.277-7.131a.57.57 0 0 0-.516-.805zm.367 1.137h5.144l-3.275 7.131a.57.57 0 0 0 .516.805h6.848a.57.57 0 0 0 .516-.33l3.496-7.606h5.148l-3.277 7.131a.57.57 0 0 0 .518.805h8.266l-2.295 5.008h-8.787c-.225 0 .306.132.215.338l-3.487 6.209a.57.57 0 0 0 .52.797h8.394l-2.295 5.008h-8.916a.57.57 0 0 0-.518.334l-4.519 9.971h-5.154l4.309-9.502a.57.57 0 0 0-.512-.803l-6.848-.062a.57.57 0 0 0-.523.334l-4.521 10.033h-5.152l4.311-9.566a.57.57 0 0 0-.52-.801h-8.711l2.291-4.945h9.236a.57.57 0 0 0 .518-.332l2.816-6.209a.57.57 0 0 0-.514-.803l-8.91-.059 2.293-4.949h9.43a.57.57 0 0 0 .518-.334zm1.873.592a.57.57 0 0 0-.516.328l-7.039 15.104-8.133 18.444a.57.57 0 0 0 .52.797h.256a.57.57 0 0 0 .514-.328l8.576-18.432 6.598-15.118a.57.57 0 0 0-.52-.795zm13.119 0a.57.57 0 0 0-.516.328l-7.039 15.104-8.133 18.444a.57.57 0 0 0 .52.797h.256a.57.57 0 0 0 .516-.328l8.576-18.432 6.598-15.118a.57.57 0 0 0-.521-.795zm-15.424 12.352a.57.57 0 0 0-.52.338l-2.752 6.209a.57.57 0 0 0 .52.797h6.848a.57.57 0 0 0 .52-.338l2.752-6.207a.57.57 0 0 0-.52-.799zm.369 1.137h5.606l-2.248 5.072h-5.606z"/></g></mask></defs><g transform="translate(-40.86 -187.68)" fill="#e1f0da"><path d="m51.484 204.33v14.266"/><path d="M51.484 203.4a.926.926 0 0 0-.926.926v14.268a.926.926 0 1 0 1.852 0v-14.268a.926.926 0 0 0-.926-.926zm-10.498 15.225l2.982-11.666h4.171v11.666h-3.177l.071-1.698h-.657l-.319 1.698zm1.562-.928h.071l.106-.415q.053-.217.106-.474.035-.138.071-.296.035-.158.071-.316l1.828-.02 1.81.02-.053 1.5h.089l.213-4.975.071-4.935-1.029.039-.905-.039-1.313 4.896zm2.254-1.54l-1.81-.039.887-3.415 1.171-4.836.852-.02.941.02-.195 4.856-.053 3.395zm-.231-.75h.639l.444-5.981z"/><path d="M43.967 206.818c-.056 0-.106.042-.121.102l-2.982 11.666a.15.15 0 0 0 .021.122c.024.035.061.055.1.055h3.07c.059 0 .111-.046.123-.111l.298-1.587h.424l-.065 1.552c-.002.038.011.075.035.103a.12.12 0 0 0 .091.043h3.177c.069 0 .125-.062.126-.139v-11.666c0-.037-.013-.073-.037-.099s-.056-.041-.089-.041zm.095.279h3.95v11.388h-2.92l.065-1.551c.002-.038-.011-.075-.034-.103a.12.12 0 0 0-.091-.043h-.657c-.059 0-.11.046-.122.111l-.299 1.587h-2.802zm.939.551c-.057-.003-.109.038-.125.099l-1.313 4.895-1.137 5.02c-.009.042-.001.086.023.12s.06.054.099.054h.071c.056 0 .105-.041.121-.101l.107-.414.106-.474.002-.007.07-.293.048-.211 1.73-.019 1.68.019-.049 1.357c-.001.038.011.075.035.102a.12.12 0 0 0 .09.043h.089c.067 0 .122-.058.125-.133l.213-4.975.071-4.939c.001-.038-.013-.075-.037-.102s-.058-.041-.092-.04l-1.025.039zm.901.338l.809.017-.19 4.713-.051 3.264-1.667.037-1.647-.036.842-3.24 1.148-4.738zm-.294 1.31c-.04.017-.069.056-.078.102l-1.083 5.982c-.007.041.002.083.026.116s.059.051.097.051h.639c.065 0 .12-.055.125-.128l.444-5.982c.003-.048-.015-.094-.05-.123s-.08-.036-.12-.019zm-.257 2.507l-.257 3.464h-.37zm9.054 6.982l1.473-11.666h4.117q1.047 0 1.509.434.461.434.461 1.184 0 .079 0 .178 0 .099-.018.197l-.16 1.263q-.089.829-.532 1.441-.444.592-1.296.691v.039q.674 0 1.118.434.461.415.461 1.342 0 .099-.018.217 0 .118-.018.257l-.195 1.52q-.177 1.402-.941 1.935-.763.533-2.006.533zm3.834-.888q.568 0 1.047-.632.497-.632.674-1.994v.039q0 0 .018-.178.018-.197.035-.375.018-.118.018-.237.018-.138.018-.257 0-.592-.248-1.026-.248-.454-.816-.454.39 0 .816-.632.408-.632.586-2.013.035-.336.053-.592.035-.276.035-.494 0-.651-.266-.869-.266-.237-.958-.237l-.568.02-.018.039.568.02q.657 0 .887.237.231.217.231.75 0 .217-.035.513-.035.276-.071.612-.142 1.125-.479 1.895-.337.75-.958.75h-.71v.039h.71q.639 0 .87.336.231.336.231.908 0 .296-.053.691l-.053.513q-.177 1.323-.603 1.935-.426.612-.958.612l-.781.02v.039zm-2.254 0h.053l.674-5.132.586-4.777h-.071l-.692 4.777zm2.218-5.981h.213q.195 0 .355-.454.071-.217.124-.494.071-.296.106-.612.035-.336.053-.612.018-.296.035-.513v-.079q0-.375-.213-.375h-.266zm-.657 5.271h.266q.195 0 .319-.494.124-.474.213-1.165.035-.276.071-.572.035-.316.035-.572 0-.217-.053-.355-.035-.158-.177-.158h-.266z"/><path d="M55.877 206.978c-.063 0-.115.052-.124.12l-1.473 11.666a.15.15 0 0 0 .03.111c.024.03.058.048.094.048h3.958c.844 0 1.538-.181 2.072-.554.547-.382.876-1.074.998-2.033h0l.196-1.52a2.17 2.17 0 0 0 .017-.253v-.004l.019-.236c0-.643-.165-1.14-.507-1.449-.195-.19-.433-.303-.689-.377.351-.124.664-.3.883-.592.311-.429.498-.936.56-1.511v-.001l.159-1.254c.013-.075.02-.15.02-.225v-.178c0-.532-.171-.976-.506-1.291-.343-.323-.876-.467-1.59-.467zm.109.279h4.009c.682 0 1.156.146 1.428.402.28.264.417.609.417 1.078v.178c0 .057-.005.113-.015.17l-.161 1.271c-.057.532-.225.985-.505 1.372-.273.363-.668.577-1.211.64-.064.007-.113.067-.113.139v.039c0 .037.013.073.037.099s.056.041.089.041c.425 0 .763.133 1.035.399.276.248.419.645.419 1.237 0 .057-.005.122-.016.195-.001.008-.002.015-.002.023a1.87 1.87 0 0 1-.017.237l-.195 1.52c-.115.909-.413 1.508-.883 1.836-.483.337-1.126.511-1.938.511h-3.814zm3.26.551l-.568.019c-.046.002-.088.031-.108.077l-.018.04c-.019.043-.017.093.005.134s.061.066.104.068l.568.02c.428 0 .696.087.806.2.119.112.19.315.19.648a4.26 4.26 0 0 1-.035.495v-.001l-.071.615c-.093.738-.25 1.355-.467 1.851-.211.468-.477.672-.845.672h-.71c-.069 0-.125.062-.126.139v.04c0 .077.056.139.126.139h.71c.406 0 .65.107.77.281.133.193.205.462.205.823a5.12 5.12 0 0 1-.052.67l-.053.514c-.117.868-.316 1.493-.578 1.869-.268.386-.548.558-.86.558l-.784.019c-.068.002-.123.064-.122.14v.039c0 .076.054.138.122.14l.781.02c.423 0 .81-.239 1.145-.68l.001-.001c.349-.444.572-1.123.694-2.021l.028-.187.035-.375-.001.007a1.75 1.75 0 0 0 .019-.26l.018-.257c0-.416-.088-.787-.268-1.1-.111-.202-.281-.327-.477-.412.16-.117.316-.287.471-.516.294-.455.49-1.145.609-2.078l.054-.592v-.009c.023-.185.036-.354.036-.504 0-.454-.093-.794-.317-.978-.219-.193-.561-.266-1.033-.266zm-2.02.039c-.061 0-.114.05-.123.117l-.692 4.777-.551 5.138a.15.15 0 0 0 .031.109.12.12 0 0 0 .094.047h.053c.062 0 .115-.051.124-.119l.674-5.133.586-4.778a.15.15 0 0 0-.03-.111c-.024-.03-.058-.048-.094-.048zm2.974.31l.004.004zm-1.59.48c-.062 0-.115.051-.124.119l-.408 3.139a.15.15 0 0 0 .029.112c.024.031.059.048.095.048h.213c.109 0 .207-.067.281-.161a1.34 1.34 0 0 0 .191-.381c.05-.153.092-.322.128-.509h0a5.18 5.18 0 0 0 .11-.63l.054-.619.035-.511v-.092c0-.14-.017-.258-.073-.356s-.162-.158-.266-.158zm.109.279h.158c.038 0 .038.002.054.029s.034.096.034.207v.074l-.035.509v-.001l-.053.605a4.88 4.88 0 0 1-.103.592c-.036.185-.076.342-.12.479-.05.142-.102.243-.146.299s-.07.066-.092.066h-.068zm-.765 4.814c-.063 0-.116.051-.125.12l-.408 3.316a.15.15 0 0 0 .03.111c.024.03.058.048.094.048h.266c.113 0 .212-.077.279-.181s.117-.24.161-.413v-.001a9.55 9.55 0 0 0 .216-1.183l.071-.574a5.21 5.21 0 0 0 .037-.59 1.15 1.15 0 0 0-.061-.397.36.36 0 0 0-.101-.186.29.29 0 0 0-.194-.07zm.109.279h.157c.026 0 .033.005.037.009s.011.012.018.043a.15.15 0 0 0 .006.021c.026.068.043.169.043.301 0 .164-.012.349-.035.555l-.07.57c-.059.456-.129.839-.21 1.146-.039.157-.084.267-.123.327s-.058.066-.076.066h-.122z"/><g transform="translate(1.123 36.371)" mask="url(#A)"><path d="M46.137 152.24h8.449c1.423 0 2.569 1.146 2.569 2.569v11.248c0 1.423-1.146 2.569-2.569 2.569h-8.449c-1.423 0-2.569-1.146-2.569-2.569v-11.248c0-1.423 1.146-2.569 2.569-2.569z"/><path d="M46.137 151.31a3.51 3.51 0 0 0-3.494 3.496v11.246a3.51 3.51 0 0 0 3.494 3.496h8.449a3.51 3.51 0 0 0 3.496-3.496v-11.246a3.51 3.51 0 0 0-3.496-3.496zm0 1.852h8.449a1.62 1.62 0 0 1 1.643 1.644v11.246a1.62 1.62 0 0 1-1.643 1.644h-8.449a1.62 1.62 0 0 1-1.643-1.644v-11.246a1.62 1.62 0 0 1 1.643-1.644z"/></g></g></svg>