<?xml version="1.0" encoding="UTF-8" standalone="no"?>
<!-- Created with Inkscape (http://www.inkscape.org/) -->

<svg
   width="21.23303mm"
   height="31.839174mm"
   viewBox="0 0 21.23303 31.839174"
   version="1.1"
   id="svg1"
   xmlns="http://www.w3.org/2000/svg"
   xmlns:svg="http://www.w3.org/2000/svg">
  <defs
     id="defs1">
    <mask
       maskUnits="userSpaceOnUse"
       id="mask-powermask-path-effect13-9">
      <path
         id="mask-powermask-path-effect13-9_box"
         style="fill:#ffffff;fill-opacity:1"
         d="M 41.641907,150.31084 H 59.08115 v 20.23764 H 41.641907 Z" />
      <path
         id="path14"
         style="fill:#ffffff;fill-opacity:1"
         d="M 41.641907,150.31084 H 59.08115 v 20.23764 H 41.641907 Z" />
      <g
         id="g16"
         transform="matrix(0.17580427,0,0,0.30843932,-50.579914,122.51057)"
         style="stroke-width:0.999999">
        <path
           style="color:#000000;-inkscape-font-specification:'Alumni Sans Inline One Italic';fill:#000000;stroke-width:0.999999;stroke-linecap:round;stroke-linejoin:round;-inkscape-stroke:none"
           d="m 555.70573,141.07576 4.672,-10.368 h -9.6 l 2.816,-6.08 h 9.6 l 2.816,-6.208 -9.792,-0.064 2.816,-6.08 h 9.792 l 3.584,-7.936 h 6.4 l -3.648,7.936 h 6.848 l 3.648,-7.936 h 6.4 l -3.648,7.936 h 9.152 l -2.816,6.144 h -9.152 l -2.752,6.208 h 9.28 l -2.816,6.144 h -9.28 l -4.672,10.304 h -6.4 l 4.672,-10.304 -6.848,-0.064 -4.672,10.368 z m 3.776,-1.472 h 0.256 l 8.576,-18.432 6.592,-15.104 h -0.256 l -7.04,15.104 z m 13.12,0 h 0.256 l 8.576,-18.432 6.592,-15.104 h -0.256 l -7.04,15.104 z m -3.008,-14.976 h 6.848 l 2.752,-6.208 h -6.848 z"
           id="path15" />
        <path
           style="color:#000000;-inkscape-font-specification:'Alumni Sans Inline One Italic';fill:#000000;stroke-width:0.999999;stroke-linecap:round;stroke-linejoin:round;-inkscape-stroke:none"
           d="m 572.41016,103.77148 c -0.22314,3e-5 -0.42561,0.13068 -0.51758,0.33399 l -3.4336,7.60156 h -9.42578 c -0.22152,1e-4 -0.42279,0.12894 -0.51562,0.33008 l -2.81446,6.08008 c -0.1734,0.37496 0.0986,0.80375 0.51172,0.80664 l 8.91602,0.0586 -2.30274,5.07813 h -9.23437 c -0.22108,-2.6e-4 -0.42223,0.12774 -0.51563,0.32812 l -2.8164,6.08008 c -0.1741,0.37648 0.10083,0.80658 0.51562,0.80664 h 8.72071 l -4.31055,9.56641 c -0.1705,0.37616 0.10458,0.8028 0.51758,0.80273 h 6.40039 c 0.2236,-3.8e-4 0.42619,-0.13187 0.51758,-0.33594 l 4.51953,-10.02929 5.60547,0.0527 -4.3125,9.50977 c -0.1705,0.37616 0.10457,0.80279 0.51757,0.80273 h 6.4004 c 0.22314,-3e-5 0.4256,-0.13068 0.51757,-0.33398 l 4.52149,-9.97071 h 8.91406 c 0.22198,-4.5e-4 0.42337,-0.13013 0.51563,-0.33203 l 2.8164,-6.14258 c 0.17247,-0.37671 -0.10327,-0.8054 -0.51758,-0.80468 h -8.40625 l 2.24805,-5.07227 h 8.7832 c 0.22198,-4.5e-4 0.42337,-0.13013 0.51563,-0.33203 l 2.8164,-6.14453 c 0.17213,-0.37594 -0.10215,-0.80398 -0.51562,-0.80469 h -8.26563 l 3.27735,-7.13086 c 0.17213,-0.37595 -0.10215,-0.80399 -0.51563,-0.80469 h -6.40039 c -0.22223,-6.7e-4 -0.42445,0.1283 -0.51758,0.33008 l -3.49414,7.60547 h -5.59765 l 3.27734,-7.13086 c 0.17213,-0.37594 -0.10215,-0.80398 -0.51562,-0.80469 z m 0.36718,1.13672 h 5.14453 l -3.27539,7.13086 c -0.17213,0.37595 0.10215,0.80399 0.51563,0.80469 h 6.84766 c 0.22152,-1e-4 0.42279,-0.12894 0.51562,-0.33008 l 3.49609,-7.60547 h 5.14844 l -3.27734,7.13086 c -0.17248,0.37671 0.10326,0.80541 0.51758,0.80469 h 8.26562 l -2.29492,5.00781 h -8.78711 c -0.22477,-5e-5 0.30624,0.13241 0.21514,0.33789 l -3.48662,6.20899 c -0.16501,0.37527 0.10959,0.79646 0.51953,0.79687 h 8.39453 l -2.29492,5.00781 h -8.91602 c -0.22314,3e-5 -0.42561,0.13068 -0.51758,0.33399 l -4.51953,9.9707 h -5.1543 l 4.3086,-9.50195 c 0.1695,-0.37387 -0.10124,-0.79859 -0.51172,-0.80274 l -6.84766,-0.0625 c -0.22526,-0.002 -0.43059,0.12874 -0.52343,0.33399 l -4.52149,10.0332 h -5.15234 l 4.31054,-9.5664 c 0.16891,-0.37638 -0.10698,-0.80164 -0.51953,-0.80079 h -8.71093 l 2.29101,-4.94531 h 9.23633 c 0.22269,3.2e-4 0.42503,-0.12949 0.51758,-0.33203 l 2.8164,-6.20898 c 0.16983,-0.37463 -0.10235,-0.79998 -0.51367,-0.80274 l -8.91015,-0.0586 2.29296,-4.94922 h 9.42969 c 0.22314,-3e-5 0.42561,-0.13068 0.51758,-0.33398 z m 1.87305,0.5918 c -0.22107,-2.5e-4 -0.42222,0.12775 -0.51562,0.32813 l -7.03907,15.10351 c -0.002,0.004 -0.004,0.008 -0.006,0.0117 l -8.12695,18.43164 c -0.16501,0.37527 0.10959,0.79646 0.51953,0.79687 h 0.25586 c 0.22037,-5e-4 0.42057,-0.12839 0.51367,-0.32812 l 8.57617,-18.43164 c 0.002,-0.005 0.004,-0.009 0.006,-0.0137 l 6.5918,-15.10352 c 0.16305,-0.37469 -0.1109,-0.79383 -0.51953,-0.79487 z m 13.11914,0 c -0.22107,-2.5e-4 -0.42222,0.12775 -0.51562,0.32813 l -7.03907,15.10351 c -0.002,0.004 -0.004,0.008 -0.006,0.0117 l -8.12695,18.43164 c -0.16501,0.37527 0.10959,0.79646 0.51953,0.79687 h 0.25586 c 0.22108,2.6e-4 0.42223,-0.12774 0.51563,-0.32812 l 8.57617,-18.43164 c 0.002,-0.005 0.004,-0.009 0.006,-0.0137 l 6.59179,-15.10352 c 0.16338,-0.37546 -0.11201,-0.79523 -0.52148,-0.79487 z m -15.42383,12.35156 c -0.22477,-5e-5 -0.42843,0.13241 -0.51953,0.33789 l -2.75195,6.20899 c -0.16501,0.37527 0.10959,0.79646 0.51953,0.79687 h 6.84766 c 0.22477,5e-5 0.42843,-0.13241 0.51953,-0.33789 l 2.75195,-6.20703 c 0.16696,-0.37583 -0.10829,-0.79904 -0.51953,-0.79883 z m 0.36914,1.13672 h 5.60547 l -2.24804,5.07227 h -5.60547 z"
           id="path16" />
      </g>
    </mask>
  </defs>
  <g
     id="layer1"
     transform="translate(-40.860158,-187.68226)"
     style="display:inline;fill:#e1f0da;fill-opacity:1">
    <g
       id="path2-4-6-0-8-2-0">
      <path
         style="color:#000000;stroke-linecap:round;-inkscape-stroke:none"
         d="m 51.48421,204.32909 v 14.2663"
         id="path3" />
      <path
         style="color:#000000;stroke-linecap:round;-inkscape-stroke:none"
         d="m 51.484375,203.40234 a 0.926045,0.926045 0 0 0 -0.925781,0.92578 v 14.26758 a 0.926045,0.926045 0 0 0 0.925781,0.92578 0.926045,0.926045 0 0 0 0.925781,-0.92578 v -14.26758 a 0.926045,0.926045 0 0 0 -0.925781,-0.92578 z"
         id="path4" />
    </g>
    <g
       id="text15-6-6-5-3"
       transform="matrix(0.27731499,0,0,0.30843932,-110.65303,175.11454)"
       style="fill:#e1f0da;fill-opacity:1">
      <path
         style="color:#000000;-inkscape-font-specification:'Alumni Sans Inline One Italic';fill:#e1f0da;fill-opacity:1;stroke-linecap:round;stroke-linejoin:round;-inkscape-stroke:none"
         d="m 546.80973,141.07576 10.752,-37.824 h 15.04 v 37.824 h -11.456 l 0.256,-5.504 h -2.368 l -1.152,5.504 z m 5.632,-3.008 h 0.256 l 0.384,-1.344 q 0.192,-0.704 0.384,-1.536 0.128,-0.448 0.256,-0.96 0.128,-0.512 0.256,-1.024 l 6.592,-0.064 6.528,0.064 -0.192,4.864 h 0.32 l 0.768,-16.128 0.256,-16 -3.712,0.128 -3.264,-0.128 -4.736,15.872 z m 8.128,-4.992 -6.528,-0.128 3.2,-11.072 4.224,-15.68 3.072,-0.064 3.392,0.064 -0.704,15.744 -0.192,11.008 z m -0.832,-2.432 h 2.304 l 1.6,-19.392 z"
         id="path17" />
      <path
         style="color:#000000;-inkscape-font-specification:'Alumni Sans Inline One Italic';fill:#e1f0da;fill-opacity:1;stroke-linecap:round;stroke-linejoin:round;-inkscape-stroke:none"
         d="m 557.5625,102.79883 a 0.45238125,0.45238125 0 0 0 -0.43555,0.33008 L 546.375,140.95117 a 0.45238125,0.45238125 0 0 0 0.43555,0.57617 h 11.07031 a 0.45238125,0.45238125 0 0 0 0.44336,-0.35937 l 1.07617,-5.14453 h 1.52734 l -0.23437,5.03125 a 0.45238125,0.45238125 0 0 0 0.45312,0.47265 h 11.45508 a 0.45238125,0.45238125 0 0 0 0.45313,-0.45117 v -37.82422 a 0.45238125,0.45238125 0 0 0 -0.45313,-0.45312 z m 0.3418,0.9043 h 14.24414 v 36.91992 h -10.5293 l 0.23438,-5.0293 a 0.45238125,0.45238125 0 0 0 -0.45118,-0.47461 h -2.36914 a 0.45238125,0.45238125 0 0 0 -0.4414,0.35938 l -1.07813,5.14453 H 547.4082 Z m 3.38672,1.78515 a 0.45238125,0.45238125 0 0 0 -0.45118,0.32227 l -4.73632,15.87109 a 0.45238125,0.45238125 0 0 0 -0.004,0.0195 l -4.0957,16.25586 a 0.45238125,0.45238125 0 0 0 0.4375,0.5625 h 0.25586 a 0.45238125,0.45238125 0 0 0 0.43554,-0.32812 l 0.38477,-1.34375 a 0.45238125,0.45238125 0 0 0 0,-0.004 c 0.12787,-0.46887 0.25561,-0.98131 0.38281,-1.53125 l 0.006,-0.0234 c 0.0848,-0.29782 0.16957,-0.61381 0.25391,-0.95117 l 0.17187,-0.68555 6.23828,-0.0605 6.0586,0.0605 -0.17579,4.39844 a 0.45238125,0.45238125 0 0 0 0.45313,0.46875 h 0.32031 a 0.45238125,0.45238125 0 0 0 0.45117,-0.42969 l 0.76758,-16.1289 a 0.45238125,0.45238125 0 0 0 0,-0.0137 l 0.25586,-16 a 0.45238125,0.45238125 0 0 0 -0.4668,-0.45899 l -3.69531,0.12695 z m 3.24804,1.0957 2.91797,0.0547 -0.68359,15.28125 a 0.45238125,0.45238125 0 0 0 0,0.0117 l -0.1836,10.57227 -6.01172,0.11914 -5.9375,-0.11524 3.03516,-10.50586 a 0.45238125,0.45238125 0 0 0 0.002,-0.008 l 4.13672,-15.35351 z m -1.05859,4.2461 a 0.45238125,0.45238125 0 0 0 -0.28125,0.33203 l -3.9043,19.39258 a 0.45238125,0.45238125 0 0 0 0.44336,0.54101 h 2.30274 a 0.45238125,0.45238125 0 0 0 0.45117,-0.41406 l 1.59961,-19.39258 a 0.45238125,0.45238125 0 0 0 -0.61133,-0.45898 z m -0.92774,8.1289 -0.92773,11.23243 h -1.33398 z"
         id="path18" />
    </g>
    <g
       id="text15-6-6-5-6-4"
       transform="matrix(0.27731499,0,0,0.30843932,-97.710714,175.27154)"
       style="fill:#e1f0da;fill-opacity:1">
      <path
         style="color:#000000;-inkscape-font-specification:'Alumni Sans Inline One Italic';fill:#e1f0da;fill-opacity:1;stroke-linecap:round;stroke-linejoin:round;-inkscape-stroke:none"
         d="m 548.53773,141.07576 5.312,-37.824 h 14.848 q 3.776,0 5.44,1.408 1.664,1.408 1.664,3.84 0,0.256 0,0.576 0,0.32 -0.064,0.64 l -0.576,4.096 q -0.32,2.688 -1.92,4.672 -1.6,1.92 -4.672,2.24 v 0.128 q 2.432,0 4.032,1.408 1.664,1.344 1.664,4.352 0,0.32 -0.064,0.704 0,0.384 -0.064,0.832 l -0.704,4.928 q -0.64,4.544 -3.392,6.272 -2.752,1.728 -7.232,1.728 z m 13.824,-2.88 q 2.048,0 3.776,-2.048 1.792,-2.048 2.432,-6.464 v 0.128 q 0,0 0.064,-0.576 0.064,-0.64 0.128,-1.216 0.064,-0.384 0.064,-0.768 0.064,-0.448 0.064,-0.832 0,-1.92 -0.896,-3.328 -0.896,-1.472 -2.944,-1.472 1.408,0 2.944,-2.048 1.472,-2.048 2.112,-6.528 0.128,-1.088 0.192,-1.92 0.128,-0.896 0.128,-1.6 0,-2.112 -0.96,-2.816 -0.96,-0.768 -3.456,-0.768 l -2.048,0.064 -0.064,0.128 2.048,0.064 q 2.368,0 3.2,0.768 0.832,0.704 0.832,2.432 0,0.704 -0.128,1.664 -0.128,0.896 -0.256,1.984 -0.512,3.648 -1.728,6.144 -1.216,2.432 -3.456,2.432 h -2.56 v 0.128 h 2.56 q 2.304,0 3.136,1.088 0.832,1.088 0.832,2.944 0,0.96 -0.192,2.24 l -0.192,1.664 q -0.64,4.288 -2.176,6.272 -1.536,1.984 -3.456,1.984 l -2.816,0.064 v 0.128 z m -8.128,0 h 0.192 l 2.432,-16.64 2.112,-15.488 h -0.256 l -2.496,15.488 z m 8,-19.392 h 0.768 q 0.704,0 1.28,-1.472 0.256,-0.704 0.448,-1.6 0.256,-0.96 0.384,-1.984 0.128,-1.088 0.192,-1.984 0.064,-0.96 0.128,-1.664 v -0.256 q 0,-1.216 -0.768,-1.216 h -0.96 z m -2.368,17.088 h 0.96 q 0.704,0 1.152,-1.6 0.448,-1.536 0.768,-3.776 0.128,-0.896 0.256,-1.856 0.128,-1.024 0.128,-1.856 0,-0.704 -0.192,-1.152 -0.128,-0.512 -0.64,-0.512 h -0.96 z"
         id="path19" />
      <path
         style="color:#000000;-inkscape-font-specification:'Alumni Sans Inline One Italic';fill:#e1f0da;fill-opacity:1;stroke-linecap:round;stroke-linejoin:round;-inkscape-stroke:none"
         d="m 553.84961,102.79883 a 0.45238125,0.45238125 0 0 0 -0.44727,0.39062 l -5.3125,37.82422 a 0.45238125,0.45238125 0 0 0 0.44727,0.51367 h 14.27344 c 3.04482,0 5.54437,-0.58609 7.47265,-1.79687 1.97207,-1.23828 3.15937,-3.48077 3.59766,-6.58985 v -0.002 l 0.70508,-4.92773 c 0.0415,-0.29031 0.059,-0.5599 0.0625,-0.82031 l 0.002,-0.0137 c 2.1e-4,-0.0192 0.004,-0.0415 0.004,-0.0605 0.0378,-0.24687 0.0644,-0.48476 0.0644,-0.70508 0,-2.08566 -0.5942,-3.69728 -1.82813,-4.69727 -0.70445,-0.6175 -1.56091,-0.9812 -2.48437,-1.2207 1.26697,-0.40087 2.39419,-0.97264 3.18359,-1.91992 a 0.45238125,0.45238125 0 0 0 0.004,-0.006 c 1.11803,-1.38636 1.79213,-3.0299 2.01562,-4.89258 v -0.004 l 0.57227,-4.0664 c 0.0484,-0.24177 0.0723,-0.48503 0.0723,-0.72852 V 108.5 c 0,-1.7245 -0.61685,-3.16393 -1.82422,-4.18555 -1.23813,-1.04764 -3.15887,-1.51562 -5.73242,-1.51562 z m 0.39258,0.9043 h 14.45508 c 2.4611,-1e-5 4.1679,0.47304 5.14843,1.30273 1.0113,0.85571 1.50391,1.97597 1.50391,3.49414 v 0.57617 c 0,0.18318 -0.0177,0.36588 -0.0547,0.55078 a 0.45238125,0.45238125 0 0 0 -0.006,0.0254 l -0.57617,4.09571 a 0.45238125,0.45238125 0 0 0 0,0.01 c -0.2043,1.71613 -0.81004,3.18349 -1.82227,4.43946 -5.6e-4,7e-4 -0.001,0.001 -0.002,0.002 -0.98325,1.17628 -2.40542,1.87007 -4.36523,2.07422 a 0.45238125,0.45238125 0 0 0 -0.40625,0.45117 v 0.12695 a 0.45238125,0.45238125 0 0 0 0.45312,0.45313 c 1.53404,0 2.75109,0.43134 3.73242,1.29492 a 0.45238125,0.45238125 0 0 0 0.0156,0.0117 c 0.98101,0.79235 1.49414,2.07808 1.49414,4 0,0.18318 -0.0173,0.39496 -0.0566,0.63086 a 0.45238125,0.45238125 0 0 0 -0.006,0.0742 c 0,0.23087 -0.0204,0.48682 -0.0606,0.76757 l -0.70312,4.92774 c -0.41528,2.94851 -1.48873,4.88768 -3.18555,5.95312 -1.74105,1.09322 -4.06173,1.65821 -6.99023,1.65821 h -13.75196 z m 11.7539,1.78515 -2.04882,0.0625 a 0.45238125,0.45238125 0 0 0 -0.39063,0.25 l -0.0644,0.12891 a 0.45238125,0.45238125 0 0 0 0.39062,0.65429 l 2.04883,0.0645 a 0.45238125,0.45238125 0 0 0 0.0137,0 c 1.52977,0 2.49703,0.28151 2.89453,0.64844 a 0.45238125,0.45238125 0 0 0 0.0137,0.0117 c 0.41535,0.35146 0.67187,1.00849 0.67187,2.08789 0,0.44192 -0.0416,0.97788 -0.125,1.60352 l 0.002,-0.004 c -0.086,0.60181 -0.17211,1.26575 -0.25781,1.99414 -0.33665,2.39219 -0.90318,4.39409 -1.68555,6 -0.76061,1.51869 -1.72054,2.17774 -3.04882,2.17774 h -2.56055 a 0.45238125,0.45238125 0 0 0 -0.45313,0.45117 v 0.12891 a 0.45238125,0.45238125 0 0 0 0.45313,0.45117 h 2.56055 c 1.46479,0 2.34311,0.34682 2.77539,0.91211 0.47927,0.62674 0.74023,1.49823 0.74023,2.66797 0,0.60984 -0.062,1.3369 -0.1875,2.17383 a 0.45238125,0.45238125 0 0 0 -0.002,0.0156 l -0.18946,1.65039 c -0.42041,2.81536 -1.14012,4.83888 -2.08593,6.06055 -0.96815,1.25052 -1.97542,1.80859 -3.09961,1.80859 a 0.45238125,0.45238125 0 0 0 -0.01,0 l -2.8164,0.0625 a 0.45238125,0.45238125 0 0 0 -0.44141,0.45313 v 0.12695 a 0.45238125,0.45238125 0 0 0 0.44141,0.45312 l 2.8164,0.0645 a 0.45238125,0.45238125 0 0 0 0.01,0 c 1.51365,0 2.90974,-0.77493 4.11719,-2.20313 l 0.002,-0.002 c 1.25863,-1.4395 2.06222,-3.64108 2.50195,-6.55078 a 0.45238125,0.45238125 0 0 0 0.0371,-0.0312 l 0.0644,-0.57617 a 0.45238125,0.45238125 0 0 0 0,-0.004 c 0.0425,-0.42518 0.0845,-0.82877 0.12696,-1.21094 l -0.004,0.0234 c 0.0467,-0.28012 0.0703,-0.56067 0.0703,-0.8418 0.039,-0.29141 0.0645,-0.57109 0.0645,-0.83203 0,-1.34874 -0.31908,-2.54995 -0.96485,-3.5664 -0.39959,-0.6541 -1.01315,-1.06172 -1.71875,-1.33594 0.57592,-0.38028 1.14018,-0.93104 1.69727,-1.67383 a 0.45238125,0.45238125 0 0 0 0.006,-0.008 c 1.05443,-1.46703 1.75924,-3.70334 2.1914,-6.72852 a 0.45238125,0.45238125 0 0 0 0.002,-0.0117 c 0.0846,-0.71893 0.14814,-1.35159 0.1914,-1.9082 l 0.002,-0.0293 c 0.0847,-0.60087 0.13086,-1.14675 0.13086,-1.63476 0,-1.47238 -0.33363,-2.5738 -1.14258,-3.17188 -0.78972,-0.62622 -2.02249,-0.86328 -3.72656,-0.86328 a 0.45238125,0.45238125 0 0 0 -0.0137,0 z m -7.2832,0.12695 a 0.45238125,0.45238125 0 0 0 -0.44531,0.38086 l -2.4961,15.48829 a 0.45238125,0.45238125 0 0 0 -0.002,0.0176 l -1.98437,16.64063 a 0.45238125,0.45238125 0 0 0 0.44921,0.50586 h 0.19141 a 0.45238125,0.45238125 0 0 0 0.44727,-0.38672 l 2.43164,-16.64063 a 0.45238125,0.45238125 0 0 0 0.002,-0.004 l 2.11133,-15.48828 a 0.45238125,0.45238125 0 0 0 -0.44727,-0.51368 z m 10.72461,1.00391 0.0156,0.0117 c -0.003,-0.003 -0.009,-0.003 -0.0117,-0.006 -0.002,-0.002 -0.002,-0.004 -0.004,-0.006 z m -5.73242,1.55664 a 0.45238125,0.45238125 0 0 0 -0.44727,0.38672 l -1.47265,10.17578 a 0.45238125,0.45238125 0 0 0 0.44921,0.51758 h 0.76758 c 0.3923,0 0.74645,-0.21613 1.01367,-0.52344 0.26723,-0.3073 0.48411,-0.71654 0.6875,-1.23633 a 0.45238125,0.45238125 0 0 0 0.004,-0.01 c 0.177,-0.48675 0.32856,-1.03429 0.45899,-1.63867 v -0.002 c 0.1759,-0.65998 0.30878,-1.33943 0.39648,-2.04101 a 0.45238125,0.45238125 0 0 0 0,-0.004 c 0.086,-0.73095 0.15205,-1.39817 0.19531,-2.0039 a 0.45238125,0.45238125 0 0 0 0,-0.004 c 0.0425,-0.63734 0.0847,-1.18794 0.12696,-1.65234 a 0.45238125,0.45238125 0 0 0 0.002,-0.041 v -0.25586 c 0,-0.45295 -0.061,-0.83652 -0.26172,-1.1543 -0.2007,-0.31778 -0.58362,-0.51367 -0.95898,-0.51367 z m 0.39258,0.9043 h 0.56836 c 0.13663,0 0.13806,0.006 0.19335,0.0937 0.0553,0.0876 0.1211,0.3122 0.1211,0.66992 v 0.24023 c -0.0425,0.46957 -0.0848,1.01747 -0.12695,1.6504 l 0.002,-0.002 c -0.0421,0.58894 -0.10674,1.24318 -0.19141,1.96289 -0.0829,0.66172 -0.20623,1.30169 -0.37109,1.91992 a 0.45238125,0.45238125 0 0 0 -0.006,0.0215 c -0.12368,0.57718 -0.26694,1.08763 -0.42774,1.53125 -0.1802,0.4598 -0.36828,0.78778 -0.52734,0.9707 -0.15944,0.18336 -0.25304,0.21289 -0.33008,0.21289 h -0.24609 z m -2.75977,15.60742 a 0.45238125,0.45238125 0 0 0 -0.44922,0.39063 l -1.4707,10.75195 a 0.45238125,0.45238125 0 0 0 0.44726,0.51367 h 0.96094 c 0.40601,0 0.7628,-0.25031 1.00586,-0.58789 0.24234,-0.33658 0.42279,-0.77734 0.58008,-1.33789 l 0.002,-0.004 c 0.30668,-1.0523 0.56407,-2.32735 0.7793,-3.83398 0.0856,-0.59883 0.17035,-1.22003 0.25586,-1.86133 a 0.45238125,0.45238125 0 0 0 0.002,-0.002 c 0.0872,-0.69763 0.13086,-1.33425 0.13086,-1.91211 0,-0.49324 -0.0705,-0.91811 -0.2207,-1.28711 -0.0623,-0.22889 -0.17473,-0.45111 -0.36524,-0.60352 -0.19856,-0.15885 -0.45316,-0.22656 -0.69922,-0.22656 z m 0.39453,0.9043 h 0.56445 c 0.0953,0 0.12,0.0175 0.13477,0.0293 0.0148,0.0118 0.0409,0.0388 0.0664,0.14063 a 0.45238125,0.45238125 0 0 0 0.0234,0.0684 c 0.0942,0.21981 0.15625,0.5464 0.15625,0.97461 0,0.53147 -0.0415,1.13112 -0.125,1.79883 -0.085,0.63728 -0.16896,1.25305 -0.2539,1.84765 -0.2112,1.47841 -0.46564,2.7198 -0.75586,3.71485 a 0.45238125,0.45238125 0 0 0 0,0.004 c -0.14104,0.50371 -0.30242,0.86089 -0.44336,1.05664 -0.14094,0.19575 -0.21011,0.21289 -0.27344,0.21289 h -0.4414 z"
         id="path20" />
    </g>
    <g
       id="rect11-1-8-7-21-4-6-01-1"
       mask="url(#mask-powermask-path-effect13-9)"
       transform="translate(1.1226802,36.371432)">
      <path
         style="color:#000000;display:inline;stroke-linecap:round;stroke-linejoin:round;-inkscape-stroke:none"
         d="m 46.136963,152.23688 h 8.449131 c 1.423235,0 2.569016,1.14578 2.569016,2.56901 v 11.24754 c 0,1.42323 -1.145781,2.56901 -2.569016,2.56901 h -8.449131 c -1.423234,0 -2.569016,-1.14578 -2.569016,-2.56901 v -11.24754 c 0,-1.42323 1.145782,-2.56901 2.569016,-2.56901 z"
         id="path1" />
      <path
         style="color:#000000;display:inline;stroke-linecap:round;stroke-linejoin:round;-inkscape-stroke:none"
         d="m 46.136719,151.31055 c -1.92024,0 -3.494141,1.57585 -3.494141,3.49609 v 11.24609 c 0,1.92024 1.573901,3.4961 3.494141,3.4961 h 8.449218 c 1.920241,0 3.496094,-1.57586 3.496094,-3.4961 v -11.24609 c 0,-1.92024 -1.575853,-3.49609 -3.496094,-3.49609 z m 0,1.85156 h 8.449218 c 0.926227,0 1.642579,0.71831 1.642579,1.64453 v 11.24609 c 0,0.92622 -0.716352,1.64454 -1.642579,1.64454 h -8.449218 c -0.926225,0 -1.642578,-0.71832 -1.642578,-1.64454 v -11.24609 c 0,-0.92622 0.716353,-1.64453 1.642578,-1.64453 z"
         id="path2" />
    </g>
  </g>
</svg>
