<?xml version="1.0" encoding="UTF-8" standalone="no"?>
<!-- Created with Inkscape (http://www.inkscape.org/) -->

<svg
   width="29.723616mm"
   height="28.374908mm"
   viewBox="0 0 29.723616 28.374908"
   version="1.1"
   id="svg1"
   xmlns="http://www.w3.org/2000/svg"
   xmlns:svg="http://www.w3.org/2000/svg">
  <defs
     id="defs1" />
  <g
     id="layer1"
     transform="translate(-28.361401,-103.85989)">
    <path
       style="fill:#f5aaff;fill-opacity:0;stroke:#E1F0DA;stroke-width:1.16417;stroke-linecap:round;stroke-dasharray:none;stroke-opacity:1"
       d="M 50.51876,104.67627 H 29.00406"
       id="path2-8-85" />
    <path
       style="fill:#f5aaff;fill-opacity:0;stroke:#E1F0DA;stroke-width:1.16417;stroke-linecap:round;stroke-dasharray:none;stroke-opacity:1"
       d="M 50.51876,110.50599 H 29.00406"
       id="path2-8-85-1" />
    <path
       style="fill:#f5aaff;fill-opacity:0;stroke:#E1F0DA;stroke-width:1.16417;stroke-linecap:round;stroke-dasharray:none;stroke-opacity:1"
       d="M 50.51876,116.33572 H 29.00406"
       id="path2-8-85-4" />
    <path
       style="fill:#f5aaff;fill-opacity:0;stroke:#E1F0DA;stroke-width:1.16417;stroke-linecap:round;stroke-dasharray:none;stroke-opacity:1"
       d="M 50.51876,122.16543 H 29.00406"
       id="path2-8-85-1-3" />
    <path
       style="fill:#f5aaff;fill-opacity:0;stroke:#E1F0DA;stroke-width:1.16417;stroke-linecap:round;stroke-dasharray:none;stroke-opacity:1"
       d="M 50.51876,127.99516 H 29.00406"
       id="path2-8-85-1-3-9" />
    <path
       style="fill:#f5aaff;fill-opacity:0;stroke:#E1F0DA;stroke-width:1.16417;stroke-linecap:round;stroke-dasharray:none;stroke-opacity:1"
       d="m 44.039482,107.35045 -6.941467,24.30226"
       id="path2-8-85-1-3-9-5" />
    <g
       id="g11-1-2"
       transform="matrix(0.81293574,0,0,0.83378725,17.543831,87.055302)"
       style="stroke-width:1.21463">
      <g
         id="g4"
         transform="translate(-0.6740637)">
        <path
           style="fill:#f5aaff;fill-opacity:0;stroke:#E1F0DA;stroke-width:1.41404;stroke-linecap:round;stroke-dasharray:none;stroke-opacity:1"
           d="m 49.825156,20.861545 v 22.94955"
           id="path2-8-6-4" />
        <path
           style="fill:#E1F0DA;fill-opacity:1;stroke:#E1F0DA;stroke-width:2.25633;stroke-linecap:round;stroke-dasharray:none;stroke-opacity:1"
           id="path11-6-4"
           d="M 7.488472,60.990107 A 3.8363895,2.2962193 0 0 1 11.183307,63.338459 3.8363895,2.2962193 0 0 1 7.3091398,65.580888 3.8363895,2.2962193 0 0 1 3.5115946,63.291987 3.8363895,2.2962193 0 0 1 7.285082,60.988875"
           transform="matrix(0.84341659,-0.53726013,0.62608068,0.77975829,0,0)" />
      </g>
    </g>
    <path
       style="fill:#f5aaff;fill-opacity:0;stroke:#E1F0DA;stroke-width:1.85209;stroke-linecap:round;stroke-dasharray:none;stroke-opacity:1"
       d="m 29.287446,104.93158 v 22.50041"
       id="path2-4-6-0-8" />
    <path
       style="fill:#E1F0DA;fill-opacity:1;stroke:#E1F0DA;stroke-width:0.264583;stroke-linecap:round;stroke-linejoin:round"
       id="path4"
       d="m 40.533314,106.53716 a 1.4327439,1.1096952 0 0 1 1.454191,1.09246 1.4327439,1.1096952 0 0 1 -1.410022,1.12667 1.4327439,1.1096952 0 0 1 -1.45511,-1.09173 1.4327439,1.1096952 0 0 1 1.409074,-1.12738" />
    <path
       style="fill:#E1F0DA;fill-opacity:1;stroke:#E1F0DA;stroke-width:0.264583;stroke-linecap:round;stroke-linejoin:round"
       id="path4-9"
       d="m 38.846756,112.16906 a 1.4327439,1.1096952 0 0 1 1.454192,1.09247 1.4327439,1.1096952 0 0 1 -1.410023,1.12666 1.4327439,1.1096952 0 0 1 -1.45511,-1.09173 1.4327439,1.1096952 0 0 1 1.409074,-1.12737" />
    <path
       style="fill:#E1F0DA;fill-opacity:1;stroke:#E1F0DA;stroke-width:0.264583;stroke-linecap:round;stroke-linejoin:round"
       id="path4-8"
       d="m 37.401325,117.93467 a 1.4327439,1.1096952 0 0 1 1.454192,1.09247 1.4327439,1.1096952 0 0 1 -1.410023,1.12666 1.4327439,1.1096952 0 0 1 -1.45511,-1.09173 1.4327439,1.1096952 0 0 1 1.409075,-1.12737" />
    <path
       style="fill:#E1F0DA;fill-opacity:1;stroke:#E1F0DA;stroke-width:0.264583;stroke-linecap:round;stroke-linejoin:round"
       id="path4-4"
       d="m 35.56961,123.82974 a 1.4327439,1.1096952 0 0 1 1.454192,1.09246 1.4327439,1.1096952 0 0 1 -1.410022,1.12667 1.4327439,1.1096952 0 0 1 -1.455111,-1.09173 1.4327439,1.1096952 0 0 1 1.409075,-1.12738" />
  </g>
</svg>
