<svg xmlns="http://www.w3.org/2000/svg" xmlns:xlink="http://www.w3.org/1999/xlink" width="112.343" height="107.244" viewBox="0 0 29.724 28.375" xmlns:v="https://vecta.io/nano"><style><![CDATA[.B{stroke:#e1f0da}.C{stroke-linecap:round}.D{fill-opacity:0}]]></style><g transform="translate(-28.361 -103.86)" class="B C"><g fill="#f5aaff" stroke-width="1.164" class="D"><path d="M50.519 104.676H29.004m21.515 5.83H29.004m21.515 5.83H29.004m21.515 5.829H29.004m21.515 5.83H29.004"/><path d="M44.039 107.35l-6.941 24.302m20.403-27.203v19.135"/></g><path d="M7.488 60.99c2.098.046 3.744 1.092 3.695 2.348s-1.775 2.255-3.874 2.242-3.791-1.033-3.798-2.289 1.675-2.283 3.773-2.303" transform="matrix(.685644 -.44796 .508964 .650152 16.99586 87.055302)" fill="#e1f0da" stroke-width="2.256"/><path d="M29.287 104.932v22.5" fill="#f5aaff" stroke-width="1.852" class="D"/><g fill="#e1f0da" stroke-width=".265" stroke-linejoin="round"><use xlink:href="#B"/><use xlink:href="#B" x="-1.686" y="5.632"/><use xlink:href="#B" x="-3.132" y="11.398"/><use xlink:href="#B" x="-4.963" y="17.293"/></g></g><defs ><path id="B" d="M40.533 106.537a1.433 1.11 0 0 1 1.454 1.092 1.433 1.11 0 0 1-1.41 1.127 1.433 1.11 0 0 1-1.455-1.092 1.433 1.11 0 0 1 1.409-1.127"/></defs></svg>