<svg xmlns="http://www.w3.org/2000/svg" width="212.357" height="142.061" viewBox="0 0 56.186 37.587" xmlns:v="https://vecta.io/nano"><g stroke="#000" stroke-width="5.556" stroke-linejoin="round"><path d="M2.778 2.778h50.63V34.81H2.778z" fill="#e1f0da"/><path d="M10.497 34.81V19.796m8.296 15.014V19.796m8.241 15.014V19.796M37.393 34.81V19.796m8.241 15.014V19.796" fill="#1b943f" stroke-linecap="round"/></g><path d="M17.393 15.502a3.95 3.95 0 0 0 3.955-3.938 3.95 3.95 0 0 0-3.938-3.956 3.95 3.95 0 0 0-3.956 3.937 3.95 3.95 0 0 0 3.937 3.956l.01-3.947zm19.995-1.284a2.15 2.15 0 0 0 2.153-2.144 2.15 2.15 0 0 0-2.144-2.153 2.15 2.15 0 0 0-2.153 2.143 2.15 2.15 0 0 0 2.143 2.154l.005-2.149z"/></svg>