<?xml version="1.0" encoding="UTF-8" standalone="no"?>
<!-- Created with Inkscape (http://www.inkscape.org/) -->

<svg
   width="24.981977mm"
   height="24.732216mm"
   viewBox="0 0 24.981977 24.732216"
   version="1.1"
   id="svg1"
   xmlns="http://www.w3.org/2000/svg"
   xmlns:svg="http://www.w3.org/2000/svg">
  <defs
     id="defs1" />
  <g
     id="layer1"
     transform="translate(-132.19094,-53.623167)">
    <g
       id="g11-1-8"
       transform="translate(90.886298,29.346878)">
      <path
         style="fill:#f5aaff;fill-opacity:0;stroke:#000000;stroke-width:1.16417;stroke-linecap:round;stroke-dasharray:none;stroke-opacity:1"
         d="M 49.825154,24.858376 V 43.952272"
         id="path2-8-6-7" />
      <path
         style="fill:#000000;fill-opacity:1;stroke:#000000;stroke-width:1.85763;stroke-linecap:round;stroke-dasharray:none;stroke-opacity:1"
         id="path11-6-0"
         d="M 7.488472,60.990107 A 3.8363895,2.2962193 0 0 1 11.183307,63.338459 3.8363895,2.2962193 0 0 1 7.3091398,65.580888 3.8363895,2.2962193 0 0 1 3.5115946,63.291987 3.8363895,2.2962193 0 0 1 7.285082,60.988875"
         transform="matrix(0.84341659,-0.53726013,0.62608068,0.77975829,0,0)" />
    </g>
    <path
       style="fill:#f5aaff;fill-opacity:0;stroke:#000000;stroke-width:1.852;stroke-linecap:round;stroke-dasharray:none;stroke-opacity:1"
       d="m 143.91039,65.771812 h 12.33652"
       id="path2-4-6-30-9-4" />
    <path
       style="font-style:italic;font-size:64px;font-family:'Alumni Sans Inline One';-inkscape-font-specification:'Alumni Sans Inline One Italic';white-space:pre;stroke:#000000;stroke-width:0.904672;stroke-linecap:round;stroke-linejoin:round"
       d="m 546.55373,141.07576 q 0.256,-1.28 1.216,-3.52 0.896,-2.304 2.112,-4.8 1.216,-2.496 2.432,-4.672 1.28,-2.176 2.176,-3.264 -0.448,-1.152 -0.896,-3.264 -0.448,-2.112 -0.768,-4.48 -0.32,-2.368 -0.512,-4.416 -0.192,-2.112 -0.192,-3.264 h 9.472 q -0.128,2.112 0,3.968 0.064,1.6 0.128,3.264 0.128,1.664 0.384,2.56 0.64,-0.896 1.28,-2.496 0.704,-1.6 1.28,-3.264 0.704,-1.92 1.344,-4.032 h 9.152 q -0.64,1.6 -1.664,3.712 -0.96,2.112 -2.112,4.352 -1.152,2.176 -2.24,4.032 -1.088,1.856 -1.984,3.008 0.512,1.344 0.96,3.648 0.512,2.24 0.96,4.736 0.448,2.496 0.768,4.736 0.32,2.176 0.384,3.456 h -9.472 q 0,-0.832 -0.064,-2.176 -0.064,-1.408 -0.192,-2.88 -0.128,-1.536 -0.32,-2.816 -0.192,-1.28 -0.384,-1.856 -0.448,0.704 -1.088,2.304 -0.576,1.6 -1.152,3.264 l -1.472,4.16 z m 5.056,-3.008 h 0.192 q 0.64,-0.896 1.664,-2.688 1.088,-1.792 2.24,-3.84 1.152,-2.112 1.984,-3.84 0.832,-1.792 0.96,-2.688 0.064,-0.256 0.064,-0.512 0,-0.32 0,-0.576 0,-1.344 -0.192,-3.136 -0.128,-1.792 -0.384,-3.648 -0.256,-1.92 -0.512,-3.456 -0.192,-1.6 -0.32,-2.432 h -0.256 q 0.128,1.344 0.32,3.776 0.256,2.368 0.448,4.8 0.192,2.432 0.192,3.968 0,0.384 0,0.704 0,0.256 -0.064,0.448 -0.064,0.64 -0.768,2.304 -0.704,1.664 -1.728,3.712 -1.024,2.048 -2.048,3.968 -1.024,1.92 -1.792,3.136 z m 12.736,0 h 0.256 q -0.064,-0.704 -0.256,-2.176 -0.128,-1.536 -0.32,-3.392 -0.192,-1.92 -0.32,-3.712 -0.064,-1.856 -0.064,-3.072 0,-0.448 0,-0.768 0,-0.384 0.064,-0.576 0.064,-0.64 0.768,-2.304 0.704,-1.664 1.728,-3.712 1.024,-2.048 2.048,-3.968 1.024,-1.92 1.792,-3.136 h -0.192 q -0.576,0.832 -1.664,2.624 -1.088,1.792 -2.304,3.904 -1.152,2.112 -1.984,3.904 -0.832,1.792 -0.896,2.624 -0.064,0.256 -0.064,0.512 0,0.256 0,0.576 0,1.344 0.128,3.136 0.192,1.792 0.448,3.712 0.256,1.856 0.448,3.456 0.256,1.536 0.384,2.368 z"
       id="text15-6-28"
       transform="matrix(0.27731499,0,0,0.30843932,-6.0342112,33.652523)"
       aria-label="x" />
    <path
       style="font-style:italic;font-size:64px;font-family:'Alumni Sans Inline One';-inkscape-font-specification:'Alumni Sans Inline One Italic';white-space:pre;stroke:#000000;stroke-width:1.03876;stroke-linecap:round;stroke-linejoin:round"
       d="m 554.23373,141.07576 3.584,-25.92 h -6.784 l 0.832,-5.76 q 2.24,0 4.8,-1.6 2.56,-1.6 4.096,-4.544 h 8.96 l -5.312,37.824 z m 5.376,-3.008 h 0.256 l 2.624,-16.192 1.92,-15.808 h -0.256 l -2.496,15.808 z"
       id="text15-6-2-5"
       transform="matrix(0.24102888,0,0,0.26917019,14.386072,25.980631)"
       aria-label="1" />
  </g>
</svg>
