<?xml version="1.0" encoding="UTF-8" standalone="no"?>
<!-- Created with Inkscape (http://www.inkscape.org/) -->

<svg
   width="24.981979mm"
   height="24.732216mm"
   viewBox="0 0 24.981979 24.732216"
   version="1.1"
   id="svg1"
   xmlns="http://www.w3.org/2000/svg"
   xmlns:svg="http://www.w3.org/2000/svg">
  <defs
     id="defs1" />
  <g
     id="layer1"
     transform="translate(-132.19094,-53.623167)">
    <g
       id="g11-1-8"
       transform="translate(90.886298,29.346878)"
       style="fill:#e1f0da;fill-opacity:1;stroke:#e1f0da;stroke-opacity:1">
      <path
         style="fill:#e1f0da;fill-opacity:1;stroke:#e1f0da;stroke-width:1.16417;stroke-linecap:round;stroke-dasharray:none;stroke-opacity:1"
         d="M 49.825154,24.858376 V 43.952272"
         id="path2-8-6-7" />
      <path
         style="fill:#e1f0da;fill-opacity:1;stroke:#e1f0da;stroke-width:1.85763;stroke-linecap:round;stroke-dasharray:none;stroke-opacity:1"
         id="path11-6-0"
         d="M 7.488472,60.990107 A 3.8363895,2.2962193 0 0 1 11.183307,63.338459 3.8363895,2.2962193 0 0 1 7.3091398,65.580888 3.8363895,2.2962193 0 0 1 3.5115946,63.291987 3.8363895,2.2962193 0 0 1 7.285082,60.988875"
         transform="matrix(0.84341659,-0.53726013,0.62608068,0.77975829,0,0)" />
    </g>
    <path
       style="fill:#e1f0da;fill-opacity:1;stroke:#e1f0da;stroke-width:1.852;stroke-linecap:round;stroke-dasharray:none;stroke-opacity:1"
       d="m 143.91039,65.771812 h 12.33652"
       id="path2-4-6-30-9-4" />
    <g
       id="text15-6-28"
       transform="matrix(0.27731499,0,0,0.30843932,-6.0342112,33.652523)">
      <path
         style="color:#000000;-inkscape-font-specification:'Alumni Sans Inline One Italic';fill:#e1f0da;fill-opacity:1;stroke-linecap:round;stroke-linejoin:round;-inkscape-stroke:none"
         d="m 546.55373,141.07576 q 0.256,-1.28 1.216,-3.52 0.896,-2.304 2.112,-4.8 1.216,-2.496 2.432,-4.672 1.28,-2.176 2.176,-3.264 -0.448,-1.152 -0.896,-3.264 -0.448,-2.112 -0.768,-4.48 -0.32,-2.368 -0.512,-4.416 -0.192,-2.112 -0.192,-3.264 h 9.472 q -0.128,2.112 0,3.968 0.064,1.6 0.128,3.264 0.128,1.664 0.384,2.56 0.64,-0.896 1.28,-2.496 0.704,-1.6 1.28,-3.264 0.704,-1.92 1.344,-4.032 h 9.152 q -0.64,1.6 -1.664,3.712 -0.96,2.112 -2.112,4.352 -1.152,2.176 -2.24,4.032 -1.088,1.856 -1.984,3.008 0.512,1.344 0.96,3.648 0.512,2.24 0.96,4.736 0.448,2.496 0.768,4.736 0.32,2.176 0.384,3.456 h -9.472 q 0,-0.832 -0.064,-2.176 -0.064,-1.408 -0.192,-2.88 -0.128,-1.536 -0.32,-2.816 -0.192,-1.28 -0.384,-1.856 -0.448,0.704 -1.088,2.304 -0.576,1.6 -1.152,3.264 l -1.472,4.16 z m 5.056,-3.008 h 0.192 q 0.64,-0.896 1.664,-2.688 1.088,-1.792 2.24,-3.84 1.152,-2.112 1.984,-3.84 0.832,-1.792 0.96,-2.688 0.064,-0.256 0.064,-0.512 0,-0.32 0,-0.576 0,-1.344 -0.192,-3.136 -0.128,-1.792 -0.384,-3.648 -0.256,-1.92 -0.512,-3.456 -0.192,-1.6 -0.32,-2.432 h -0.256 q 0.128,1.344 0.32,3.776 0.256,2.368 0.448,4.8 0.192,2.432 0.192,3.968 0,0.384 0,0.704 0,0.256 -0.064,0.448 -0.064,0.64 -0.768,2.304 -0.704,1.664 -1.728,3.712 -1.024,2.048 -2.048,3.968 -1.024,1.92 -1.792,3.136 z m 12.736,0 h 0.256 q -0.064,-0.704 -0.256,-2.176 -0.128,-1.536 -0.32,-3.392 -0.192,-1.92 -0.32,-3.712 -0.064,-1.856 -0.064,-3.072 0,-0.448 0,-0.768 0,-0.384 0.064,-0.576 0.064,-0.64 0.768,-2.304 0.704,-1.664 1.728,-3.712 1.024,-2.048 2.048,-3.968 1.024,-1.92 1.792,-3.136 h -0.192 q -0.576,0.832 -1.664,2.624 -1.088,1.792 -2.304,3.904 -1.152,2.112 -1.984,3.904 -0.832,1.792 -0.896,2.624 -0.064,0.256 -0.064,0.512 0,0.256 0,0.576 0,1.344 0.128,3.136 0.192,1.792 0.448,3.712 0.256,1.856 0.448,3.456 0.256,1.536 0.384,2.368 z"
         id="path1" />
      <path
         style="color:#000000;-inkscape-font-specification:'Alumni Sans Inline One Italic';fill:#e1f0da;fill-opacity:1;stroke-linecap:round;stroke-linejoin:round;-inkscape-stroke:none"
         d="m 552.12109,108.94336 c -0.24966,6.7e-4 -0.45158,0.20346 -0.45117,0.45312 0,0.79313 0.0647,1.88931 0.19336,3.30469 0.12867,1.37245 0.29963,2.85163 0.51367,4.43555 0.2147,1.58874 0.47219,3.09349 0.77344,4.51367 0.27949,1.3176 0.56215,2.30095 0.85156,3.08984 -0.59782,0.75095 -1.27211,1.74307 -2.07812,3.11329 -0.002,0.003 -0.004,0.007 -0.006,0.01 -0.81527,1.45891 -1.62936,3.02447 -2.44336,4.69531 -0.81294,1.66866 -1.51994,3.27386 -2.12109,4.81836 -0.002,0.004 -0.002,0.006 -0.004,0.01 -7e-4,0.002 -10e-4,0.004 -0.002,0.006 -0.64172,1.49926 -1.05704,2.68753 -1.23829,3.59375 -0.0561,0.28059 0.15919,0.54209 0.44532,0.54101 h 9.53515 c 0.19123,-1.9e-4 0.36169,-0.1206 0.42578,-0.30078 l 1.47266,-4.16015 c 0,-6.7e-4 0,-0.001 0,-0.002 0.38156,-1.10229 0.76303,-2.18421 1.14453,-3.24414 l 0.002,-0.002 c 0.2003,-0.50062 0.32881,-0.69897 0.49804,-1.06055 0.0364,0.20269 0.0691,0.27105 0.10547,0.51367 0.12625,0.84167 0.23177,1.76945 0.31641,2.78516 0,6.7e-4 0,10e-4 0,0.002 0.0848,0.97542 0.14903,1.92919 0.1914,2.86133 0,6.7e-4 0,0.001 0,0.002 0.0425,0.89157 0.0625,1.61123 0.0625,2.1543 6.7e-4,0.24966 0.20347,0.45158 0.45313,0.45117 h 9.47265 c 0.25831,-3.7e-4 0.46387,-0.21661 0.45118,-0.47461 -0.0439,-0.87763 -0.17433,-2.03822 -0.38868,-3.49609 v -0.002 c -0.21413,-1.49877 -0.47013,-3.08195 -0.76953,-4.75 -0.29892,-1.66546 -0.61898,-3.24706 -0.96093,-4.74414 l -0.004,-0.0137 c -0.28093,-1.44186 -0.58641,-2.55755 -0.91406,-3.46484 0.5824,-0.76744 1.20143,-1.6923 1.88672,-2.86133 0.72911,-1.24378 1.47933,-2.59312 2.25,-4.04882 6.8e-4,-0.002 10e-4,-0.004 0.002,-0.006 0.76927,-1.49581 1.47512,-2.94923 2.11719,-4.36133 0.68609,-1.41506 1.24566,-2.66005 1.67773,-3.74024 0.1195,-0.29732 -0.0995,-0.62121 -0.41992,-0.62109 h -9.15234 c -0.19931,-4.1e-4 -0.37541,0.12968 -0.4336,0.32031 -0.42435,1.40035 -0.86981,2.73655 -1.33594,4.00781 -6.9e-4,0.003 -10e-4,0.005 -0.002,0.008 -0.38002,1.09785 -0.80126,2.17509 -1.26562,3.23047 -0.003,0.005 -0.005,0.009 -0.008,0.0137 -0.21179,0.52948 -0.41302,0.8126 -0.62109,1.21679 -0.0555,-0.38632 -0.13123,-0.63131 -0.16992,-1.1289 v -0.006 c -0.0426,-1.10749 -0.0863,-2.19477 -0.12891,-3.25977 7e-5,-0.005 7e-5,-0.009 0,-0.0137 -0.0838,-1.21526 -0.0843,-2.51728 0,-3.9082 0.0162,-0.26025 -0.19041,-0.48027 -0.45117,-0.48047 z m 0.48047,0.9043 h 8.54102 c -0.058,1.23827 -0.0765,2.43718 0,3.54687 0.0425,1.06275 0.0845,2.14487 0.12695,3.25 5.5e-4,0.006 10e-4,0.0117 0.002,0.0176 0.0866,1.12613 0.21293,2.00108 0.39844,2.65039 0.10318,0.36624 0.58488,0.44925 0.80469,0.13867 0.45675,-0.63946 0.89138,-1.49854 1.32422,-2.57812 0.47313,-1.07531 0.90378,-2.17111 1.29101,-3.28907 l 0.004,-0.008 c 0.43417,-1.18455 0.84481,-2.43679 1.24219,-3.72851 h 8.1289 c -0.38658,0.92509 -0.80995,1.89708 -1.375,3.0625 -10e-4,0.003 -0.003,0.007 -0.004,0.01 -0.63673,1.40079 -1.33664,2.84467 -2.10157,4.33203 -0.76456,1.44405 -1.50764,2.78201 -2.22851,4.01172 -0.71859,1.22582 -1.37164,2.21387 -1.95117,2.95899 -0.0968,0.12432 -0.12197,0.29005 -0.0664,0.4375 0.32635,0.85665 0.6438,2.05373 0.93945,3.57421 10e-4,0.005 0.003,0.009 0.004,0.0137 0.33959,1.48569 0.65755,3.05718 0.95508,4.71484 0.29782,1.65927 0.55314,3.23334 0.76562,4.7207 0,6.7e-4 0,10e-4 0,0.002 0.18261,1.2417 0.27019,2.14937 0.32618,2.9375 h -8.52735 c -0.007,-0.50353 -0.0167,-1.02941 -0.0508,-1.74414 -0.0429,-0.94456 -0.1076,-1.90993 -0.19336,-2.89649 v -0.002 c -0.086,-1.03148 -0.19456,-1.97934 -0.32422,-2.84375 -0.1298,-0.86536 -0.25686,-1.49519 -0.40234,-1.93164 -0.12071,-0.36095 -0.60604,-0.42059 -0.81055,-0.0996 -0.32962,0.51797 -0.69526,1.29969 -1.12695,2.3789 -10e-4,0.005 -0.003,0.009 -0.004,0.0137 -0.38465,1.06847 -0.76971,2.1585 -1.15429,3.26953 l -1.36524,3.85547 h -8.58398 c 0.19696,-0.76558 0.46648,-1.64381 1,-2.88868 0.002,-0.005 0.004,-0.0104 0.006,-0.0156 0.59227,-1.523 1.29183,-3.11157 2.09765,-4.76563 0.80733,-1.65715 1.61386,-3.20601 2.41992,-4.64843 0.84386,-1.43382 1.56185,-2.50633 2.13086,-3.19727 0.10386,-0.12627 0.1315,-0.29876 0.0723,-0.45117 -0.28328,-0.72844 -0.57922,-1.80092 -0.875,-3.19531 -0.29608,-1.39582 -0.5517,-2.87673 -0.76367,-4.44531 -0.21253,-1.57273 -0.38245,-3.03878 -0.50977,-4.39649 v -0.002 c -0.10935,-1.20333 -0.14696,-2.05036 -0.16211,-2.76953 z m 4.44727,0.95117 c -0.2667,6.2e-4 -0.47499,0.23064 -0.44922,0.49609 0.0849,0.89162 0.19047,2.14759 0.31836,3.76758 6e-4,0.005 10e-4,0.009 0.002,0.0137 0.17019,1.57423 0.3196,3.17002 0.44727,4.78711 0.12741,1.61388 0.18945,2.92649 0.18945,3.93164 V 124.5 c 0,0.13297 -0.0155,0.2339 -0.0391,0.30469 -0.0108,0.0317 -0.018,0.0644 -0.0215,0.0977 -0.0302,0.30189 -0.27123,1.07914 -0.73437,2.17383 -0.46462,1.09818 -1.0375,2.32696 -1.7168,3.68555 -0.68098,1.36196 -1.36227,2.68071 -2.04297,3.95703 -0.67923,1.27355 -1.27232,2.31089 -1.77539,3.10742 -0.18961,0.30124 0.0269,0.69332 0.38281,0.69336 h 0.19141 c 0.14646,3.3e-4 0.28402,-0.0703 0.36914,-0.18945 0.4413,-0.61782 0.99908,-1.521 1.68164,-2.71485 l 0.008,-0.0117 c 0.72609,-1.19623 1.47247,-2.47688 2.24024,-3.8418 0.001,-0.002 0.003,-0.004 0.004,-0.006 0.77091,-1.41334 1.43532,-2.69875 1.99414,-3.85938 6.8e-4,-0.002 10e-4,-0.004 0.002,-0.006 0.55957,-1.20523 0.89111,-2.1071 0.99219,-2.79688 0.0469,-0.1963 0.0742,-0.39458 0.0742,-0.59375 v -0.57617 c 0,-0.91302 -0.0653,-1.96878 -0.19336,-3.16797 l -0.002,-0.0156 c -0.086,-1.19938 -0.21367,-2.41939 -0.38476,-3.66015 v -0.002 c -0.17014,-1.2759 -0.34111,-2.42411 -0.51172,-3.44922 l -0.002,-0.0195 c -0.12696,-1.05673 -0.23422,-1.86613 -0.32032,-2.42579 -0.0333,-0.22047 -0.22233,-0.38378 -0.44531,-0.38476 z m 12.80078,0 c -0.14822,3.8e-4 -0.0675,0.36923 -0.15169,0.4912 -0.39465,0.57004 -1.1715,1.15221 -1.89909,2.3506 -0.72745,1.19814 -1.49643,2.50345 -2.3086,3.91406 -0.002,0.003 -0.004,0.005 -0.006,0.008 -0.77183,1.41502 -1.43643,2.72621 -1.99609,3.93164 -0.56168,1.20978 -0.87931,2.08935 -0.93359,2.76758 -0.0413,0.18443 -0.0684,0.37178 -0.0684,0.55859 v 0.57617 c 0,0.91036 0.043,1.96529 0.1289,3.16797 -9e-5,0.005 -9e-5,0.0104 0,0.0156 0.12845,1.19882 0.27808,2.43907 0.44922,3.72265 6.6e-4,6.7e-4 0.001,0.001 0.002,0.002 0.17035,1.23506 0.31768,2.38562 0.44531,3.44922 10e-4,0.007 0.003,0.013 0.004,0.0195 0.1705,1.02299 0.29801,1.81206 0.38282,2.36328 0.0343,0.22043 0.22418,0.38294 0.44726,0.38281 h 0.25586 c 0.26577,3.2e-4 0.47456,-0.22745 0.45117,-0.49219 -0.0434,-0.47736 -0.12938,-1.20297 -0.25586,-2.17382 l -0.002,-0.0156 c -2.2e-4,-0.002 2.3e-4,-0.002 0,-0.004 -0.0853,-1.02234 -0.19094,-2.14705 -0.31836,-3.3789 v -0.002 c -0.12697,-1.26991 -0.23358,-2.49685 -0.31836,-3.68164 -0.0426,-1.23393 -0.0644,-2.25391 -0.0644,-3.05664 v -0.76757 c 0,-0.23087 0.027,-0.38947 0.041,-0.43164 0.0109,-0.0323 0.0181,-0.0657 0.0215,-0.0996 0.0302,-0.30189 0.27123,-1.07718 0.73437,-2.17188 0.46462,-1.09818 1.03555,-2.32696 1.71485,-3.68555 0.68098,-1.36196 1.36227,-2.68071 2.04297,-3.95703 0.67923,-1.27355 1.27232,-2.31089 1.77539,-3.10742 0.192,-0.30161 -0.0253,-0.69625 -0.38281,-0.69531 z m -6.57227,13.42969 c -0.005,0.0151 -10e-4,0.0356 -0.006,0.0508 -10e-4,0.0108 -0.0146,0.0362 -0.0156,0.0469 z m -4.88086,0.76367 -0.0215,0.0977 c 0.006,-0.0184 0.004,-0.0399 0.01,-0.0586 9.8e-4,-0.009 0.0108,-0.0303 0.0117,-0.0391 z"
         id="path2" />
    </g>
    <path
       style="font-style:italic;font-size:64px;font-family:'Alumni Sans Inline One';-inkscape-font-specification:'Alumni Sans Inline One Italic';white-space:pre;fill:#e1f0da;fill-opacity:1;stroke:#e1f0da;stroke-width:1.04039;stroke-linecap:round;stroke-linejoin:round;stroke-dasharray:none;stroke-opacity:1"
       d="m 554.23373,141.07576 3.584,-25.92 h -6.784 l 0.832,-5.76 c 1.49333,0 3.09333,-0.53333 4.8,-1.6 1.70667,-1.06667 3.072,-2.58133 4.096,-4.544 h 8.96 l -5.312,37.824 z m 5.376,-3.008 h 0.256 l 2.624,-16.192 1.92,-15.808 h -0.256 l -2.11736,14.33877 z"
       id="text15-6-2-5"
       transform="matrix(0.24102888,0,0,0.26917019,14.386072,25.980631)"
       aria-label="1" />
  </g>
</svg>
