<?xml version="1.0" encoding="UTF-8" standalone="no"?>
<svg
   width="13.531368"
   height="13.531369"
   viewBox="0 0 13.531368 13.531369"
   fill="none"
   version="1.1"
   id="svg1"
   xmlns="http://www.w3.org/2000/svg"
   xmlns:svg="http://www.w3.org/2000/svg">
  <defs
     id="defs1" />
  <path
     d="m 6.7656842,0 c 0.888482,0 1.768265,0.17499954 2.589121,0.5150063 0.8208548,0.3400077 1.5666948,0.8383656 2.1949298,1.4666175 0.628259,0.6282448 1.126617,1.3740844 1.466634,2.1949399 0.339994,0.8208556 0.514999,1.7006319 0.514999,2.5891206 0,0.8884886 -0.175005,1.7682649 -0.514999,2.589121 -0.340017,0.8208547 -0.838375,1.5666947 -1.466634,2.1949297 -0.628235,0.628259 -1.374075,1.126617 -2.1949298,1.466634 -0.820856,0.339994 -1.700639,0.515 -2.589121,0.515 V 6.7656843 Z"
     fill="#899d7e"
     id="path1"
     style="stroke-width:0.999999" />
  <path
     d="M 6.7656842,0 C 5.8772022,0 4.9974192,0.17499951 4.1765632,0.5150063 3.3557082,0.8550139 2.6098682,1.353372 1.9816332,1.981624 1.3533742,2.609869 0.85501615,3.355708 0.51499915,4.176564 0.17500515,4.997419 1.5087891e-7,5.877196 1.5087891e-7,6.765684 1.5087891e-7,7.654173 0.17500515,8.533949 0.51499915,9.3548053 0.85501615,10.17566 1.3533742,10.9215 1.9816332,11.549735 c 0.628235,0.628259 1.374075,1.126617 2.19493,1.466634 0.820856,0.339994 1.700639,0.515 2.589121,0.515 V 6.765684 Z"
     fill="#899d7e"
     id="path1-9"
     style="fill:#899d7e;fill-opacity:0.01;stroke-width:0.999999" />
</svg>
