<?xml version="1.0" encoding="UTF-8" standalone="no"?>
<!-- Created with Inkscape (http://www.inkscape.org/) -->

<svg
   width="26.797623mm"
   height="24.729588mm"
   viewBox="0 0 26.797623 24.729588"
   version="1.1"
   id="svg1"
   xmlns="http://www.w3.org/2000/svg"
   xmlns:svg="http://www.w3.org/2000/svg">
  <defs
     id="defs1" />
  <g
     id="layer1"
     transform="translate(-28.241967,-24.276292)">
    <path
       style="fill:#f5aaff;fill-opacity:0;stroke:#e1f0da;stroke-width:1.852;stroke-linecap:round;stroke-dasharray:none;stroke-opacity:1"
       id="path1"
       d="m 41.744445,26.430403 a 8.4200001,8.4200001 0 0 1 3.653558,10.469935 8.4200001,8.4200001 0 0 1 -9.892199,5.011231 8.4200001,8.4200001 0 0 1 -6.280184,-9.139328 8.4200001,8.4200001 0 0 1 8.224653,-7.437951" />
    <path
       style="fill:#f5aaff;fill-opacity:0;stroke:#e1f0da;stroke-width:1.85208;stroke-linecap:round;stroke-dasharray:none;stroke-opacity:1"
       d="m 37.587771,29.348572 v 4.20274"
       id="path2" />
    <path
       style="fill:#f5aaff;fill-opacity:0;stroke:#e1f0da;stroke-width:1.85208;stroke-linecap:round;stroke-dasharray:none;stroke-opacity:1"
       d="M 41.856668,37.71711 37.762656,34.060542"
       id="path2-3" />
    <path
       style="fill:#f5aaff;fill-opacity:0;stroke:#e1f0da;stroke-width:1.16417;stroke-linecap:round;stroke-dasharray:none;stroke-opacity:1"
       d="M 49.825154,24.858376 V 43.952272"
       id="path2-8" />
    <path
       style="fill:#f5aaff;fill-opacity:0;stroke:#e1f0da;stroke-width:1.16417;stroke-linecap:round;stroke-dasharray:none;stroke-opacity:1"
       d="m 49.825143,24.885722 c 1.395483,4.1298 4.123806,4.881776 4.595323,8.701975"
       id="path2-8-1" />
    <path
       style="fill:#f5aaff;fill-opacity:0;stroke:#e1f0da;stroke-width:1.16417;stroke-linecap:round;stroke-dasharray:none;stroke-opacity:1"
       d="m 49.862182,27.45923 c 1.395483,2.75064 4.123806,3.251491 4.595323,5.795922"
       id="path2-8-1-1" />
    <path
       style="fill:#e1f0da;fill-opacity:1;stroke:#e1f0da;stroke-width:1.85208;stroke-linecap:round;stroke-dasharray:none;stroke-opacity:1"
       id="path11"
       d="M 7.488472,60.990107 A 3.8363895,2.2962193 0 0 1 11.183307,63.338459 3.8363895,2.2962193 0 0 1 7.3091398,65.580888 3.8363895,2.2962193 0 0 1 3.5115946,63.291987 3.8363895,2.2962193 0 0 1 7.285082,60.988875"
       transform="matrix(0.84341659,-0.53726013,0.62608068,0.77975829,0,0)" />
  </g>
</svg>
